{"glyphs":{"0":{"ha":761,"x_min":0,"x_max":0,"o":"m 381 -19 b 713 431 579 -19 713 163 b 381 881 713 699 579 881 b 49 431 182 881 49 699 b 381 -19 49 163 182 -19 z m 381 90 b 171 431 253 90 171 226 b 381 771 171 635 253 771 b 590 431 508 771 590 635 b 381 90 590 226 508 90 z "},"1":{"ha":404,"x_min":0,"x_max":0,"o":"m 313 0 l 313 861 l 222 861 l 28 724 l 28 574 l 189 688 l 190 0 z "},"2":{"ha":615,"x_min":0,"x_max":0,"o":"m 576 0 l 576 110 l 207 110 l 406 338 b 550 636 525 474 550 526 b 289 881 550 783 446 881 b 24 757 193 881 101 838 l 24 619 b 289 771 167 754 226 771 b 431 636 382 771 431 722 b 315 413 431 563 422 536 l 31 85 l 31 0 z "},"3":{"ha":629,"x_min":0,"x_max":0,"o":"m 283 -19 b 586 263 457 -19 586 100 b 374 540 586 399 503 507 l 564 778 l 564 861 l 35 861 l 35 751 l 393 751 l 207 514 l 207 443 b 467 263 378 458 467 396 b 283 89 467 163 390 89 b 35 211 214 89 161 106 l 35 82 b 283 -19 110 17 196 -19 z "},"4":{"ha":724,"x_min":0,"x_max":0,"o":"m 521 0 l 521 217 l 696 217 l 696 328 l 521 328 l 521 861 l 431 861 l 24 293 l 24 217 l 401 217 l 401 0 z m 401 631 l 401 328 l 188 328 z "},"5":{"ha":636,"x_min":0,"x_max":0,"o":"m 290 547 b 182 531 244 547 206 539 l 199 744 l 575 744 l 575 861 l 89 861 l 53 364 b 290 438 161 424 204 438 b 475 265 397 438 475 364 b 290 90 475 164 399 90 b 42 201 217 90 167 94 l 42 65 b 290 -19 107 10 193 -19 b 594 265 465 -19 594 101 b 290 547 594 428 465 547 z "},"6":{"ha":678,"x_min":0,"x_max":0,"o":"m 339 -19 b 639 282 507 -19 639 114 b 529 518 639 375 600 460 b 286 564 467 569 371 588 l 454 861 l 319 861 l 94 468 b 40 282 57 401 40 346 b 339 -19 40 114 174 -19 z m 339 90 b 160 282 238 90 160 174 b 339 475 160 393 238 475 b 519 282 442 475 519 393 b 339 90 519 172 440 90 z "},"7":{"ha":643,"x_min":0,"x_max":0,"o":"m 264 -4 l 632 857 l 21 857 l 21 747 l 460 747 l 136 -4 z "},"8":{"ha":694,"x_min":0,"x_max":0,"o":"m 347 -19 b 653 249 521 -19 653 96 b 531 465 653 336 608 414 b 617 643 586 511 617 575 b 347 881 617 778 500 881 b 78 643 194 881 78 778 b 164 465 78 575 108 511 b 42 249 86 414 42 336 b 347 -19 42 97 175 -19 z m 347 518 b 197 643 261 518 197 572 b 347 771 197 718 258 771 b 497 643 436 771 497 718 b 347 518 497 571 436 518 z m 347 90 b 161 249 239 90 161 157 b 347 401 161 336 240 401 b 533 249 454 401 533 336 b 347 90 533 158 456 90 z "},"9":{"ha":678,"x_min":0,"x_max":0,"o":"m 360 0 l 585 393 b 639 579 622 460 639 515 b 340 881 639 747 506 881 b 40 579 172 881 40 747 b 150 343 40 486 79 401 b 393 297 213 292 308 274 l 225 0 z m 340 386 b 160 579 238 386 160 468 b 340 771 160 689 239 771 b 519 579 442 771 519 688 b 340 386 519 468 442 386 z "}," ":{"ha":285,"x_min":0,"x_max":0,"o":""},"A":{"ha":922,"x_min":0,"x_max":0,"o":"m 149 0 l 257 239 l 665 239 l 774 0 l 899 0 l 506 861 l 414 861 l 24 0 z m 461 701 l 614 350 l 308 350 z "},"B":{"ha":797,"x_min":0,"x_max":0,"o":"m 464 0 b 750 244 639 0 750 94 b 610 440 750 335 676 415 b 722 618 656 464 722 538 b 438 861 722 767 611 861 l 92 861 l 92 0 z m 214 751 l 438 751 b 600 618 540 751 600 701 b 438 486 600 533 543 486 l 214 486 z m 214 375 l 467 375 b 628 244 569 375 628 328 b 467 110 628 160 569 110 l 214 110 z "},"C":{"ha":794,"x_min":0,"x_max":0,"o":"m 489 -19 b 733 50 579 -19 665 7 l 733 186 b 492 90 679 124 599 90 b 167 433 301 90 167 233 b 489 771 167 631 299 771 b 733 678 599 771 678 739 l 733 814 b 492 881 663 858 581 881 b 44 433 226 881 44 672 b 489 -19 44 178 238 -19 z "},"D":{"ha":839,"x_min":0,"x_max":0,"o":"m 375 0 b 794 431 626 0 794 174 b 375 861 794 688 626 861 l 92 861 l 92 0 z m 214 751 l 376 751 b 672 431 558 751 672 628 b 376 110 672 233 558 110 l 214 110 z "},"E":{"ha":744,"x_min":0,"x_max":0,"o":"m 92 861 l 92 0 l 682 0 l 682 110 l 214 110 l 214 394 l 656 394 l 656 504 l 214 504 l 214 751 l 682 751 l 682 861 z "},"F":{"ha":726,"x_min":0,"x_max":0,"o":"m 92 861 l 92 0 l 214 0 l 214 394 l 656 394 l 656 504 l 214 504 l 214 751 l 682 751 l 682 861 z "},"G":{"ha":890,"x_min":0,"x_max":0,"o":"m 486 -19 b 824 118 618 -19 733 28 l 824 468 l 482 468 l 482 358 l 701 358 l 701 172 b 489 90 644 119 571 90 b 165 431 307 90 165 239 b 497 771 165 621 310 771 b 772 657 596 771 700 733 l 772 781 b 492 881 708 842 599 881 b 46 431 235 881 46 690 b 486 -19 46 174 235 -19 z "},"H":{"ha":872,"x_min":0,"x_max":0,"o":"m 214 0 l 214 394 l 658 394 l 658 0 l 781 0 l 781 861 l 658 861 l 658 504 l 214 504 l 214 861 l 92 861 l 92 0 z "},"I":{"ha":306,"x_min":0,"x_max":0,"o":"m 214 0 l 214 861 l 92 861 l 92 0 z "},"J":{"ha":531,"x_min":0,"x_max":0,"o":"m 189 -19 b 456 285 368 -19 456 82 l 456 861 l 333 861 l 333 289 b 183 90 333 151 289 92 b 33 139 131 90 86 104 l 33 26 b 189 -19 75 0 131 -19 z "},"K":{"ha":728,"x_min":0,"x_max":0,"o":"m 214 0 l 214 367 l 565 0 l 715 0 l 306 429 l 714 861 l 565 861 l 214 490 l 214 861 l 92 861 l 92 0 z "},"L":{"ha":722,"x_min":0,"x_max":0,"o":"m 674 0 l 674 110 l 214 110 l 214 861 l 92 861 l 92 0 z "},"M":{"ha":989,"x_min":0,"x_max":0,"o":"m 214 0 l 214 624 l 494 217 l 775 624 l 775 0 l 897 0 l 897 861 l 800 861 l 494 417 l 189 861 l 92 861 l 92 0 z "},"N":{"ha":840,"x_min":0,"x_max":0,"o":"m 214 0 l 214 636 l 651 0 l 749 0 l 749 861 l 626 861 l 626 225 l 189 861 l 92 861 l 92 0 z "},"O":{"ha":983,"x_min":0,"x_max":0,"o":"m 490 -19 b 938 433 743 -19 938 178 b 493 881 938 672 758 881 b 46 433 228 881 46 672 b 490 -19 46 178 238 -19 z m 493 90 b 168 433 303 90 168 233 b 490 771 168 631 300 771 b 815 433 682 771 815 629 b 493 90 815 232 683 90 z "},"P":{"ha":760,"x_min":0,"x_max":0,"o":"m 214 0 l 214 351 l 438 351 b 722 607 611 351 722 449 b 438 861 722 763 611 861 l 92 861 l 92 0 z m 214 750 l 440 751 b 600 607 544 751 600 700 b 439 461 600 513 544 461 l 214 461 z "},"Q":{"ha":983,"x_min":0,"x_max":0,"o":"m 938 433 b 493 881 938 672 758 881 b 46 433 228 881 46 672 b 490 -19 46 178 238 -19 b 707 35 569 -19 644 0 l 772 -44 l 858 19 l 794 97 b 938 433 883 179 938 299 z m 493 90 b 168 433 303 90 168 233 b 490 771 168 631 300 771 b 815 433 682 771 815 629 b 724 185 815 332 782 246 l 590 349 l 504 285 l 638 122 b 493 90 594 101 546 90 z "},"R":{"ha":799,"x_min":0,"x_max":0,"o":"m 544 365 b 722 607 656 397 722 483 b 438 861 722 763 611 861 l 92 861 l 92 0 l 214 0 l 214 351 l 414 351 l 633 0 l 772 0 z m 439 751 b 600 607 544 751 600 701 b 439 461 600 513 544 461 l 214 461 l 214 750 z "},"S":{"ha":699,"x_min":0,"x_max":0,"o":"m 53 71 b 336 -21 117 25 222 -21 b 650 218 531 -21 650 69 b 436 468 650 339 586 413 l 301 517 b 169 649 225 546 169 576 b 349 769 169 719 240 769 b 604 679 446 769 528 735 l 604 806 b 343 879 539 846 450 879 b 47 649 161 879 47 790 b 257 407 47 535 114 458 l 392 360 b 528 218 482 326 528 296 b 333 89 528 143 447 89 b 53 196 225 89 132 140 z "},"T":{"ha":696,"x_min":0,"x_max":0,"o":"m 36 861 l 36 751 l 288 751 l 288 0 l 410 0 l 410 751 l 660 751 l 660 861 z "},"U":{"ha":808,"x_min":0,"x_max":0,"o":"m 403 -19 b 729 332 599 -19 729 122 l 729 861 l 607 861 l 607 332 b 403 90 607 182 531 90 b 201 332 276 90 201 182 l 201 861 l 79 861 l 79 332 b 403 -19 79 122 208 -19 z "},"V":{"ha":922,"x_min":0,"x_max":0,"o":"m 506 0 l 899 861 l 774 861 l 461 160 l 149 861 l 24 861 l 414 0 z "},"W":{"ha":1150,"x_min":0,"x_max":0,"o":"m 371 0 l 575 639 l 779 0 l 863 0 l 1126 861 l 1003 861 l 818 238 l 619 861 l 531 861 l 332 238 l 147 861 l 24 861 l 288 0 z "},"X":{"ha":743,"x_min":0,"x_max":0,"o":"m 372 532 l 156 861 l 17 861 l 301 431 l 17 0 l 156 0 l 372 329 l 589 0 l 728 0 l 443 431 l 728 861 l 589 861 z "},"Y":{"ha":743,"x_min":0,"x_max":0,"o":"m 433 422 l 725 861 l 586 861 l 372 538 l 158 861 l 19 861 l 311 422 l 311 0 l 433 0 z "},"Z":{"ha":760,"x_min":0,"x_max":0,"o":"m 717 -1 l 717 108 l 196 108 l 701 779 l 701 861 l 53 861 l 53 751 l 543 751 l 38 81 l 38 -1 z "},"a":{"ha":679,"x_min":0,"x_max":0,"o":"m 303 -21 b 490 50 385 -21 458 15 l 490 0 l 603 0 l 603 408 b 339 642 603 551 499 642 b 118 588 250 642 168 615 l 118 475 b 318 536 176 508 242 536 b 490 400 429 536 490 486 l 490 328 b 303 394 449 371 382 394 b 43 190 153 394 43 308 b 303 -21 43 67 150 -21 z m 318 81 b 156 190 235 81 156 114 b 318 300 156 265 235 300 b 493 190 401 300 493 265 b 318 81 493 114 403 81 z "},"b":{"ha":761,"x_min":0,"x_max":0,"o":"m 407 -19 b 719 314 583 -19 719 126 b 407 643 719 522 561 643 b 193 540 324 643 253 610 l 193 861 l 81 861 l 81 0 l 193 0 l 193 79 b 407 -19 250 14 322 -19 z m 390 86 b 193 218 308 86 231 139 l 193 407 b 390 538 229 486 307 538 b 607 314 518 538 607 447 b 390 86 607 175 522 86 z "},"c":{"ha":601,"x_min":0,"x_max":0,"o":"m 372 -19 b 556 31 439 -19 503 -3 l 556 168 b 375 86 519 114 461 86 b 156 311 244 86 156 176 b 372 536 156 444 243 536 b 556 451 458 536 519 507 l 556 589 b 375 642 506 621 443 642 b 43 311 189 642 43 496 b 372 -19 43 125 189 -19 z "},"d":{"ha":761,"x_min":0,"x_max":0,"o":"m 354 -19 b 568 79 439 -19 511 14 l 568 0 l 681 0 l 681 861 l 568 861 l 568 540 b 354 643 508 610 438 643 b 42 314 200 643 42 522 b 354 -19 42 126 178 -19 z m 371 86 b 154 314 239 86 154 175 b 371 538 154 447 243 538 b 568 407 454 538 532 486 l 568 218 b 371 86 531 139 453 86 z "},"e":{"ha":696,"x_min":0,"x_max":0,"o":"m 386 -19 b 600 43 469 -19 543 1 l 600 153 b 386 86 538 108 469 86 b 157 289 250 86 164 161 l 651 289 b 650 358 651 333 650 344 b 353 642 643 501 533 642 b 44 306 157 642 44 472 b 386 -19 44 121 193 -19 z m 163 379 b 351 536 174 469 253 536 b 538 379 451 536 531 468 z "},"f":{"ha":343,"x_min":0,"x_max":0,"o":"m 226 0 l 226 517 l 343 517 l 343 622 l 226 622 l 226 685 b 286 772 226 751 243 775 b 343 763 310 771 322 769 l 343 871 b 283 879 307 879 292 878 b 114 679 171 881 114 814 l 114 622 l 22 622 l 22 517 l 114 517 l 114 0 z "},"g":{"ha":726,"x_min":0,"x_max":0,"o":"m 338 -228 b 643 72 533 -228 643 -122 l 643 622 l 531 622 l 531 556 b 336 642 475 614 410 642 b 40 332 190 642 40 526 b 336 17 40 156 169 17 b 531 99 410 17 476 44 l 531 69 b 338 -122 531 -67 464 -122 b 100 -40 257 -122 179 -100 l 100 -160 b 338 -228 167 -199 251 -228 z m 353 122 b 153 332 233 122 153 206 b 353 536 153 454 236 536 b 531 417 425 536 496 488 l 531 243 b 353 122 496 172 426 122 z "},"h":{"ha":729,"x_min":0,"x_max":0,"o":"m 193 0 l 193 347 b 375 536 193 460 268 536 b 542 354 479 536 542 469 l 542 0 l 654 0 l 654 388 b 401 642 654 539 553 642 b 193 532 313 642 243 604 l 193 861 l 81 861 l 81 0 z "},"i":{"ha":263,"x_min":0,"x_max":0,"o":"m 53 801 b 132 722 53 757 88 722 b 210 801 175 722 210 757 b 132 881 210 846 175 881 b 53 801 88 881 53 846 z m 188 0 l 188 622 l 75 622 l 75 0 z "},"ı":{"ha":254,"x_min":0,"x_max":0,"o":"m 71 0 l 183 0 l 183 622 l 71 622 z "},"j":{"ha":268,"x_min":0,"x_max":0,"o":"m 53 800 b 133 722 53 756 89 722 b 211 800 176 722 211 757 b 133 881 211 846 176 881 b 53 800 89 881 53 846 z m -31 -225 b 124 -197 31 -233 86 -225 b 189 -47 168 -167 189 -115 l 189 622 l 76 622 l 76 -40 b 54 -108 76 -74 68 -97 b -31 -118 38 -122 11 -126 z "},"k":{"ha":614,"x_min":0,"x_max":0,"o":"m 193 368 l 193 861 l 81 861 l 81 0 l 193 0 l 193 310 l 474 0 l 613 0 l 303 340 l 614 625 l 474 625 z "},"l":{"ha":274,"x_min":0,"x_max":0,"o":"m 193 0 l 193 861 l 81 861 l 81 0 z "},"m":{"ha":1138,"x_min":0,"x_max":0,"o":"m 193 0 l 193 344 b 360 536 193 454 264 536 b 515 356 456 536 515 468 l 515 0 l 628 0 l 628 349 b 792 536 628 460 694 536 b 946 353 890 536 946 469 l 946 0 l 1058 0 l 1058 388 b 815 642 1058 542 963 642 b 597 524 722 642 650 603 b 388 642 561 589 486 642 b 193 536 289 642 233 592 l 193 622 l 81 622 l 81 0 z "},"n":{"ha":728,"x_min":0,"x_max":0,"o":"m 193 0 l 193 347 b 374 536 193 458 267 536 b 539 354 478 536 539 468 l 539 0 l 651 0 l 651 389 b 400 642 651 539 550 642 b 193 533 311 642 243 606 l 193 622 l 81 622 l 81 0 z "},"o":{"ha":751,"x_min":0,"x_max":0,"o":"m 374 -19 b 707 311 561 -19 707 124 b 376 642 707 494 561 642 b 44 311 190 642 44 496 b 374 -19 44 125 190 -19 z m 376 86 b 157 311 246 86 157 176 b 374 536 157 444 244 536 b 594 311 503 536 594 443 b 376 86 594 175 507 86 z "},"p":{"ha":761,"x_min":0,"x_max":0,"o":"m 193 -208 l 193 81 b 407 -17 250 15 324 -17 b 718 314 582 -17 718 126 b 407 642 718 521 560 642 b 193 539 324 642 253 608 l 193 622 l 81 622 l 81 -208 z m 390 89 b 193 218 308 89 231 139 l 193 406 b 390 536 231 485 308 536 b 606 314 518 536 606 447 b 390 89 606 175 522 89 z "},"q":{"ha":764,"x_min":0,"x_max":0,"o":"m 681 -208 l 681 622 l 568 622 l 568 539 b 354 642 508 608 438 642 b 43 314 201 642 43 521 b 354 -17 43 126 179 -17 b 568 81 438 -17 511 15 l 568 -208 z m 371 89 b 156 314 239 89 156 175 b 371 536 156 447 243 536 b 568 406 453 536 531 485 l 568 218 b 371 89 531 139 453 89 z "},"r":{"ha":404,"x_min":0,"x_max":0,"o":"m 193 0 l 193 435 b 372 528 217 518 300 561 l 372 640 b 193 569 300 646 232 618 l 193 622 l 81 622 l 81 0 z "},"s":{"ha":564,"x_min":0,"x_max":0,"o":"m 276 -19 b 515 169 415 -19 515 60 b 374 347 515 253 465 314 l 258 389 b 165 463 185 415 165 432 b 279 536 165 507 208 536 b 492 451 333 536 369 531 l 492 567 b 279 642 443 608 357 642 b 53 463 146 642 53 568 b 211 286 53 378 101 324 l 326 247 b 403 169 378 229 403 203 b 276 86 403 118 356 86 b 50 174 215 86 172 90 l 50 58 b 276 -19 101 14 190 -19 z "},"t":{"ha":396,"x_min":0,"x_max":0,"o":"m 367 104 b 246 101 319 92 272 78 b 225 174 232 113 225 138 l 225 517 l 329 517 l 329 622 l 225 622 l 225 778 l 113 778 l 113 622 l 28 622 l 28 517 l 113 517 l 113 167 b 174 4 113 89 132 36 b 367 1 217 -25 283 -26 z "},"u":{"ha":736,"x_min":0,"x_max":0,"o":"m 543 622 l 543 275 b 363 86 543 164 469 86 b 197 268 258 86 197 154 l 197 622 l 85 622 l 85 233 b 336 -19 85 83 186 -19 b 543 89 425 -19 493 17 l 543 0 l 656 0 l 656 622 z "},"v":{"ha":688,"x_min":0,"x_max":0,"o":"m 303 0 l 383 0 l 667 622 l 550 622 l 344 146 l 139 622 l 21 622 z "},"w":{"ha":914,"x_min":0,"x_max":0,"o":"m 307 0 l 457 456 l 607 0 l 682 0 l 888 622 l 775 622 l 644 194 l 515 622 l 399 622 l 269 194 l 139 622 l 26 622 l 232 0 z "},"x":{"ha":589,"x_min":0,"x_max":0,"o":"m 294 399 l 140 622 l 18 622 l 232 311 l 21 0 l 143 0 l 294 224 l 446 0 l 568 0 l 357 311 l 571 622 l 449 622 z "},"y":{"ha":617,"x_min":0,"x_max":0,"o":"m 267 -208 l 597 622 l 476 622 l 308 188 l 140 622 l 19 622 l 247 47 l 146 -208 z "},"z":{"ha":569,"x_min":0,"x_max":0,"o":"m 524 0 l 524 106 l 176 106 l 524 543 l 524 622 l 38 622 l 38 517 l 386 517 l 38 79 l 38 0 z "},".":{"ha":694,"x_min":0,"x_max":0,"o":"m 551 972 l 257 972 l 257 883 b 404 772 257 803 310 772 b 551 883 499 772 551 803 z m 314 915 l 494 915 l 494 885 b 404 829 494 840 464 829 b 314 885 344 829 314 840 z m 257 549 l 307 549 l 307 669 l 379 669 l 379 569 l 431 569 l 431 669 l 501 669 l 501 549 l 551 549 l 551 726 l 257 726 z m 303 357 l 440 306 l 440 303 l 257 303 l 257 250 l 551 250 l 551 311 l 386 374 l 386 376 l 551 438 l 551 500 l 257 500 l 257 447 l 440 447 l 440 444 l 303 393 z m 250 99 b 361 0 250 35 293 0 l 444 0 b 556 99 511 0 556 35 b 439 200 556 163 508 200 l 367 200 b 250 99 297 200 250 163 z m 307 99 b 364 143 307 126 331 143 l 440 143 b 497 99 475 143 497 126 b 446 56 499 74 478 56 l 360 56 b 307 99 328 56 307 74 z "},",":{"ha":694,"x_min":0,"x_max":0,"o":"m 551 972 l 257 972 l 257 883 b 404 772 257 803 310 772 b 551 883 499 772 551 803 z m 314 915 l 494 915 l 494 885 b 404 829 494 840 464 829 b 314 885 344 829 314 840 z m 257 549 l 307 549 l 307 669 l 379 669 l 379 569 l 431 569 l 431 669 l 501 669 l 501 549 l 551 549 l 551 726 l 257 726 z m 303 357 l 440 306 l 440 303 l 257 303 l 257 250 l 551 250 l 551 311 l 386 374 l 386 376 l 551 438 l 551 500 l 257 500 l 257 447 l 440 447 l 440 444 l 303 393 z m 250 99 b 361 0 250 35 293 0 l 444 0 b 556 99 511 0 556 35 b 439 200 556 163 508 200 l 367 200 b 250 99 297 200 250 163 z m 307 99 b 364 143 307 126 331 143 l 440 143 b 497 99 475 143 497 126 b 446 56 499 74 478 56 l 360 56 b 307 99 328 56 307 74 z "},":":{"ha":694,"x_min":0,"x_max":0,"o":"m 551 972 l 257 972 l 257 883 b 404 772 257 803 310 772 b 551 883 499 772 551 803 z m 314 915 l 494 915 l 494 885 b 404 829 494 840 464 829 b 314 885 344 829 314 840 z m 257 549 l 307 549 l 307 669 l 379 669 l 379 569 l 431 569 l 431 669 l 501 669 l 501 549 l 551 549 l 551 726 l 257 726 z m 303 357 l 440 306 l 440 303 l 257 303 l 257 250 l 551 250 l 551 311 l 386 374 l 386 376 l 551 438 l 551 500 l 257 500 l 257 447 l 440 447 l 440 444 l 303 393 z m 250 99 b 361 0 250 35 293 0 l 444 0 b 556 99 511 0 556 35 b 439 200 556 163 508 200 l 367 200 b 250 99 297 200 250 163 z m 307 99 b 364 143 307 126 331 143 l 440 143 b 497 99 475 143 497 126 b 446 56 499 74 478 56 l 360 56 b 307 99 328 56 307 74 z "},"!":{"ha":806,"x_min":0,"x_max":0,"o":"m 551 972 l 257 972 l 257 883 b 404 772 257 803 310 772 b 551 883 499 772 551 803 z m 314 915 l 494 915 l 494 885 b 404 829 494 840 464 829 b 314 885 344 829 314 840 z m 257 549 l 307 549 l 307 669 l 379 669 l 379 569 l 431 569 l 431 669 l 501 669 l 501 549 l 551 549 l 551 726 l 257 726 z m 303 357 l 440 306 l 440 303 l 257 303 l 257 250 l 551 250 l 551 311 l 386 374 l 386 376 l 551 438 l 551 500 l 257 500 l 257 447 l 440 447 l 440 444 l 303 393 z m 250 99 b 361 0 250 35 293 0 l 444 0 b 556 99 511 0 556 35 b 439 200 556 163 508 200 l 367 200 b 250 99 297 200 250 163 z m 307 99 b 364 143 307 126 331 143 l 440 143 b 497 99 475 143 497 126 b 446 56 499 74 478 56 l 360 56 b 307 99 328 56 307 74 z "},"?":{"ha":806,"x_min":0,"x_max":0,"o":"m 551 972 l 257 972 l 257 883 b 404 772 257 803 310 772 b 551 883 499 772 551 803 z m 314 915 l 494 915 l 494 885 b 404 829 494 840 464 829 b 314 885 344 829 314 840 z m 257 549 l 307 549 l 307 669 l 379 669 l 379 569 l 431 569 l 431 669 l 501 669 l 501 549 l 551 549 l 551 726 l 257 726 z m 303 357 l 440 306 l 440 303 l 257 303 l 257 250 l 551 250 l 551 311 l 386 374 l 386 376 l 551 438 l 551 500 l 257 500 l 257 447 l 440 447 l 440 444 l 303 393 z m 250 99 b 361 0 250 35 293 0 l 444 0 b 556 99 511 0 556 35 b 439 200 556 163 508 200 l 367 200 b 250 99 297 200 250 163 z m 307 99 b 364 143 307 126 331 143 l 440 143 b 497 99 475 143 497 126 b 446 56 499 74 478 56 l 360 56 b 307 99 328 56 307 74 z "},"#":{"ha":694,"x_min":0,"x_max":0,"o":"m 551 972 l 257 972 l 257 883 b 404 772 257 803 310 772 b 551 883 499 772 551 803 z m 314 915 l 494 915 l 494 885 b 404 829 494 840 464 829 b 314 885 344 829 314 840 z m 257 549 l 307 549 l 307 669 l 379 669 l 379 569 l 431 569 l 431 669 l 501 669 l 501 549 l 551 549 l 551 726 l 257 726 z m 303 357 l 440 306 l 440 303 l 257 303 l 257 250 l 551 250 l 551 311 l 386 374 l 386 376 l 551 438 l 551 500 l 257 500 l 257 447 l 440 447 l 440 444 l 303 393 z m 250 99 b 361 0 250 35 293 0 l 444 0 b 556 99 511 0 556 35 b 439 200 556 163 508 200 l 367 200 b 250 99 297 200 250 163 z m 307 99 b 364 143 307 126 331 143 l 440 143 b 497 99 475 143 497 126 b 446 56 499 74 478 56 l 360 56 b 307 99 328 56 307 74 z "},"/":{"ha":806,"x_min":0,"x_max":0,"o":"m 551 972 l 257 972 l 257 883 b 404 772 257 803 310 772 b 551 883 499 772 551 803 z m 314 915 l 494 915 l 494 885 b 404 829 494 840 464 829 b 314 885 344 829 314 840 z m 257 549 l 307 549 l 307 669 l 379 669 l 379 569 l 431 569 l 431 669 l 501 669 l 501 549 l 551 549 l 551 726 l 257 726 z m 303 357 l 440 306 l 440 303 l 257 303 l 257 250 l 551 250 l 551 311 l 386 374 l 386 376 l 551 438 l 551 500 l 257 500 l 257 447 l 440 447 l 440 444 l 303 393 z m 250 99 b 361 0 250 35 293 0 l 444 0 b 556 99 511 0 556 35 b 439 200 556 163 508 200 l 367 200 b 250 99 297 200 250 163 z m 307 99 b 364 143 307 126 331 143 l 440 143 b 497 99 475 143 497 126 b 446 56 499 74 478 56 l 360 56 b 307 99 328 56 307 74 z "},"\\":{"ha":806,"x_min":0,"x_max":0,"o":"m 551 972 l 257 972 l 257 883 b 404 772 257 803 310 772 b 551 883 499 772 551 803 z m 314 915 l 494 915 l 494 885 b 404 829 494 840 464 829 b 314 885 344 829 314 840 z m 257 549 l 307 549 l 307 669 l 379 669 l 379 569 l 431 569 l 431 669 l 501 669 l 501 549 l 551 549 l 551 726 l 257 726 z m 303 357 l 440 306 l 440 303 l 257 303 l 257 250 l 551 250 l 551 311 l 386 374 l 386 376 l 551 438 l 551 500 l 257 500 l 257 447 l 440 447 l 440 444 l 303 393 z m 250 99 b 361 0 250 35 293 0 l 444 0 b 556 99 511 0 556 35 b 439 200 556 163 508 200 l 367 200 b 250 99 297 200 250 163 z m 307 99 b 364 143 307 126 331 143 l 440 143 b 497 99 475 143 497 126 b 446 56 499 74 478 56 l 360 56 b 307 99 328 56 307 74 z "},"(":{"ha":806,"x_min":0,"x_max":0,"o":"m 551 972 l 257 972 l 257 883 b 404 772 257 803 310 772 b 551 883 499 772 551 803 z m 314 915 l 494 915 l 494 885 b 404 829 494 840 464 829 b 314 885 344 829 314 840 z m 257 549 l 307 549 l 307 669 l 379 669 l 379 569 l 431 569 l 431 669 l 501 669 l 501 549 l 551 549 l 551 726 l 257 726 z m 303 357 l 440 306 l 440 303 l 257 303 l 257 250 l 551 250 l 551 311 l 386 374 l 386 376 l 551 438 l 551 500 l 257 500 l 257 447 l 440 447 l 440 444 l 303 393 z m 250 99 b 361 0 250 35 293 0 l 444 0 b 556 99 511 0 556 35 b 439 200 556 163 508 200 l 367 200 b 250 99 297 200 250 163 z m 307 99 b 364 143 307 126 331 143 l 440 143 b 497 99 475 143 497 126 b 446 56 499 74 478 56 l 360 56 b 307 99 328 56 307 74 z "},")":{"ha":806,"x_min":0,"x_max":0,"o":"m 551 972 l 257 972 l 257 883 b 404 772 257 803 310 772 b 551 883 499 772 551 803 z m 314 915 l 494 915 l 494 885 b 404 829 494 840 464 829 b 314 885 344 829 314 840 z m 257 549 l 307 549 l 307 669 l 379 669 l 379 569 l 431 569 l 431 669 l 501 669 l 501 549 l 551 549 l 551 726 l 257 726 z m 303 357 l 440 306 l 440 303 l 257 303 l 257 250 l 551 250 l 551 311 l 386 374 l 386 376 l 551 438 l 551 500 l 257 500 l 257 447 l 440 447 l 440 444 l 303 393 z m 250 99 b 361 0 250 35 293 0 l 444 0 b 556 99 511 0 556 35 b 439 200 556 163 508 200 l 367 200 b 250 99 297 200 250 163 z m 307 99 b 364 143 307 126 331 143 l 440 143 b 497 99 475 143 497 126 b 446 56 499 74 478 56 l 360 56 b 307 99 328 56 307 74 z "},"{":{"ha":806,"x_min":0,"x_max":0,"o":"m 551 972 l 257 972 l 257 883 b 404 772 257 803 310 772 b 551 883 499 772 551 803 z m 314 915 l 494 915 l 494 885 b 404 829 494 840 464 829 b 314 885 344 829 314 840 z m 257 549 l 307 549 l 307 669 l 379 669 l 379 569 l 431 569 l 431 669 l 501 669 l 501 549 l 551 549 l 551 726 l 257 726 z m 303 357 l 440 306 l 440 303 l 257 303 l 257 250 l 551 250 l 551 311 l 386 374 l 386 376 l 551 438 l 551 500 l 257 500 l 257 447 l 440 447 l 440 444 l 303 393 z m 250 99 b 361 0 250 35 293 0 l 444 0 b 556 99 511 0 556 35 b 439 200 556 163 508 200 l 367 200 b 250 99 297 200 250 163 z m 307 99 b 364 143 307 126 331 143 l 440 143 b 497 99 475 143 497 126 b 446 56 499 74 478 56 l 360 56 b 307 99 328 56 307 74 z "},"}":{"ha":806,"x_min":0,"x_max":0,"o":"m 551 972 l 257 972 l 257 883 b 404 772 257 803 310 772 b 551 883 499 772 551 803 z m 314 915 l 494 915 l 494 885 b 404 829 494 840 464 829 b 314 885 344 829 314 840 z m 257 549 l 307 549 l 307 669 l 379 669 l 379 569 l 431 569 l 431 669 l 501 669 l 501 549 l 551 549 l 551 726 l 257 726 z m 303 357 l 440 306 l 440 303 l 257 303 l 257 250 l 551 250 l 551 311 l 386 374 l 386 376 l 551 438 l 551 500 l 257 500 l 257 447 l 440 447 l 440 444 l 303 393 z m 250 99 b 361 0 250 35 293 0 l 444 0 b 556 99 511 0 556 35 b 439 200 556 163 508 200 l 367 200 b 250 99 297 200 250 163 z m 307 99 b 364 143 307 126 331 143 l 440 143 b 497 99 475 143 497 126 b 446 56 499 74 478 56 l 360 56 b 307 99 328 56 307 74 z "},"[":{"ha":806,"x_min":0,"x_max":0,"o":"m 551 972 l 257 972 l 257 883 b 404 772 257 803 310 772 b 551 883 499 772 551 803 z m 314 915 l 494 915 l 494 885 b 404 829 494 840 464 829 b 314 885 344 829 314 840 z m 257 549 l 307 549 l 307 669 l 379 669 l 379 569 l 431 569 l 431 669 l 501 669 l 501 549 l 551 549 l 551 726 l 257 726 z m 303 357 l 440 306 l 440 303 l 257 303 l 257 250 l 551 250 l 551 311 l 386 374 l 386 376 l 551 438 l 551 500 l 257 500 l 257 447 l 440 447 l 440 444 l 303 393 z m 250 99 b 361 0 250 35 293 0 l 444 0 b 556 99 511 0 556 35 b 439 200 556 163 508 200 l 367 200 b 250 99 297 200 250 163 z m 307 99 b 364 143 307 126 331 143 l 440 143 b 497 99 475 143 497 126 b 446 56 499 74 478 56 l 360 56 b 307 99 328 56 307 74 z "},"]":{"ha":806,"x_min":0,"x_max":0,"o":"m 551 972 l 257 972 l 257 883 b 404 772 257 803 310 772 b 551 883 499 772 551 803 z m 314 915 l 494 915 l 494 885 b 404 829 494 840 464 829 b 314 885 344 829 314 840 z m 257 549 l 307 549 l 307 669 l 379 669 l 379 569 l 431 569 l 431 669 l 501 669 l 501 549 l 551 549 l 551 726 l 257 726 z m 303 357 l 440 306 l 440 303 l 257 303 l 257 250 l 551 250 l 551 311 l 386 374 l 386 376 l 551 438 l 551 500 l 257 500 l 257 447 l 440 447 l 440 444 l 303 393 z m 250 99 b 361 0 250 35 293 0 l 444 0 b 556 99 511 0 556 35 b 439 200 556 163 508 200 l 367 200 b 250 99 297 200 250 163 z m 307 99 b 364 143 307 126 331 143 l 440 143 b 497 99 475 143 497 126 b 446 56 499 74 478 56 l 360 56 b 307 99 328 56 307 74 z "},"–":{"ha":806,"x_min":0,"x_max":0,"o":"m 551 972 l 257 972 l 257 883 b 404 772 257 803 310 772 b 551 883 499 772 551 803 z m 314 915 l 494 915 l 494 885 b 404 829 494 840 464 829 b 314 885 344 829 314 840 z m 257 549 l 307 549 l 307 669 l 379 669 l 379 569 l 431 569 l 431 669 l 501 669 l 501 549 l 551 549 l 551 726 l 257 726 z m 303 357 l 440 306 l 440 303 l 257 303 l 257 250 l 551 250 l 551 311 l 386 374 l 386 376 l 551 438 l 551 500 l 257 500 l 257 447 l 440 447 l 440 444 l 303 393 z m 250 99 b 361 0 250 35 293 0 l 444 0 b 556 99 511 0 556 35 b 439 200 556 163 508 200 l 367 200 b 250 99 297 200 250 163 z m 307 99 b 364 143 307 126 331 143 l 440 143 b 497 99 475 143 497 126 b 446 56 499 74 478 56 l 360 56 b 307 99 328 56 307 74 z "},"—":{"ha":806,"x_min":0,"x_max":0,"o":"m 551 972 l 257 972 l 257 883 b 404 772 257 803 310 772 b 551 883 499 772 551 803 z m 314 915 l 494 915 l 494 885 b 404 829 494 840 464 829 b 314 885 344 829 314 840 z m 257 549 l 307 549 l 307 669 l 379 669 l 379 569 l 431 569 l 431 669 l 501 669 l 501 549 l 551 549 l 551 726 l 257 726 z m 303 357 l 440 306 l 440 303 l 257 303 l 257 250 l 551 250 l 551 311 l 386 374 l 386 376 l 551 438 l 551 500 l 257 500 l 257 447 l 440 447 l 440 444 l 303 393 z m 250 99 b 361 0 250 35 293 0 l 444 0 b 556 99 511 0 556 35 b 439 200 556 163 508 200 l 367 200 b 250 99 297 200 250 163 z m 307 99 b 364 143 307 126 331 143 l 440 143 b 497 99 475 143 497 126 b 446 56 499 74 478 56 l 360 56 b 307 99 328 56 307 74 z "},"_":{"ha":806,"x_min":0,"x_max":0,"o":"m 551 972 l 257 972 l 257 883 b 404 772 257 803 310 772 b 551 883 499 772 551 803 z m 314 915 l 494 915 l 494 885 b 404 829 494 840 464 829 b 314 885 344 829 314 840 z m 257 549 l 307 549 l 307 669 l 379 669 l 379 569 l 431 569 l 431 669 l 501 669 l 501 549 l 551 549 l 551 726 l 257 726 z m 303 357 l 440 306 l 440 303 l 257 303 l 257 250 l 551 250 l 551 311 l 386 374 l 386 376 l 551 438 l 551 500 l 257 500 l 257 447 l 440 447 l 440 444 l 303 393 z m 250 99 b 361 0 250 35 293 0 l 444 0 b 556 99 511 0 556 35 b 439 200 556 163 508 200 l 367 200 b 250 99 297 200 250 163 z m 307 99 b 364 143 307 126 331 143 l 440 143 b 497 99 475 143 497 126 b 446 56 499 74 478 56 l 360 56 b 307 99 328 56 307 74 z "},"­":{"ha":806,"x_min":0,"x_max":0,"o":"m 551 972 l 257 972 l 257 883 b 404 772 257 803 310 772 b 551 883 499 772 551 803 z m 314 915 l 494 915 l 494 885 b 404 829 494 840 464 829 b 314 885 344 829 314 840 z m 257 549 l 307 549 l 307 669 l 379 669 l 379 569 l 431 569 l 431 669 l 501 669 l 501 549 l 551 549 l 551 726 l 257 726 z m 303 357 l 440 306 l 440 303 l 257 303 l 257 250 l 551 250 l 551 311 l 386 374 l 386 376 l 551 438 l 551 500 l 257 500 l 257 447 l 440 447 l 440 444 l 303 393 z m 250 99 b 361 0 250 35 293 0 l 444 0 b 556 99 511 0 556 35 b 439 200 556 163 508 200 l 367 200 b 250 99 297 200 250 163 z m 307 99 b 364 143 307 126 331 143 l 440 143 b 497 99 475 143 497 126 b 446 56 499 74 478 56 l 360 56 b 307 99 328 56 307 74 z "},"‚":{"ha":806,"x_min":0,"x_max":0,"o":"m 551 972 l 257 972 l 257 883 b 404 772 257 803 310 772 b 551 883 499 772 551 803 z m 314 915 l 494 915 l 494 885 b 404 829 494 840 464 829 b 314 885 344 829 314 840 z m 257 549 l 307 549 l 307 669 l 379 669 l 379 569 l 431 569 l 431 669 l 501 669 l 501 549 l 551 549 l 551 726 l 257 726 z m 303 357 l 440 306 l 440 303 l 257 303 l 257 250 l 551 250 l 551 311 l 386 374 l 386 376 l 551 438 l 551 500 l 257 500 l 257 447 l 440 447 l 440 444 l 303 393 z m 250 99 b 361 0 250 35 293 0 l 444 0 b 556 99 511 0 556 35 b 439 200 556 163 508 200 l 367 200 b 250 99 297 200 250 163 z m 307 99 b 364 143 307 126 331 143 l 440 143 b 497 99 475 143 497 126 b 446 56 499 74 478 56 l 360 56 b 307 99 328 56 307 74 z "},"„":{"ha":806,"x_min":0,"x_max":0,"o":"m 551 972 l 257 972 l 257 883 b 404 772 257 803 310 772 b 551 883 499 772 551 803 z m 314 915 l 494 915 l 494 885 b 404 829 494 840 464 829 b 314 885 344 829 314 840 z m 257 549 l 307 549 l 307 669 l 379 669 l 379 569 l 431 569 l 431 669 l 501 669 l 501 549 l 551 549 l 551 726 l 257 726 z m 303 357 l 440 306 l 440 303 l 257 303 l 257 250 l 551 250 l 551 311 l 386 374 l 386 376 l 551 438 l 551 500 l 257 500 l 257 447 l 440 447 l 440 444 l 303 393 z m 250 99 b 361 0 250 35 293 0 l 444 0 b 556 99 511 0 556 35 b 439 200 556 163 508 200 l 367 200 b 250 99 297 200 250 163 z m 307 99 b 364 143 307 126 331 143 l 440 143 b 497 99 475 143 497 126 b 446 56 499 74 478 56 l 360 56 b 307 99 328 56 307 74 z "},"“":{"ha":806,"x_min":0,"x_max":0,"o":"m 551 972 l 257 972 l 257 883 b 404 772 257 803 310 772 b 551 883 499 772 551 803 z m 314 915 l 494 915 l 494 885 b 404 829 494 840 464 829 b 314 885 344 829 314 840 z m 257 549 l 307 549 l 307 669 l 379 669 l 379 569 l 431 569 l 431 669 l 501 669 l 501 549 l 551 549 l 551 726 l 257 726 z m 303 357 l 440 306 l 440 303 l 257 303 l 257 250 l 551 250 l 551 311 l 386 374 l 386 376 l 551 438 l 551 500 l 257 500 l 257 447 l 440 447 l 440 444 l 303 393 z m 250 99 b 361 0 250 35 293 0 l 444 0 b 556 99 511 0 556 35 b 439 200 556 163 508 200 l 367 200 b 250 99 297 200 250 163 z m 307 99 b 364 143 307 126 331 143 l 440 143 b 497 99 475 143 497 126 b 446 56 499 74 478 56 l 360 56 b 307 99 328 56 307 74 z "},"”":{"ha":806,"x_min":0,"x_max":0,"o":"m 551 972 l 257 972 l 257 883 b 404 772 257 803 310 772 b 551 883 499 772 551 803 z m 314 915 l 494 915 l 494 885 b 404 829 494 840 464 829 b 314 885 344 829 314 840 z m 257 549 l 307 549 l 307 669 l 379 669 l 379 569 l 431 569 l 431 669 l 501 669 l 501 549 l 551 549 l 551 726 l 257 726 z m 303 357 l 440 306 l 440 303 l 257 303 l 257 250 l 551 250 l 551 311 l 386 374 l 386 376 l 551 438 l 551 500 l 257 500 l 257 447 l 440 447 l 440 444 l 303 393 z m 250 99 b 361 0 250 35 293 0 l 444 0 b 556 99 511 0 556 35 b 439 200 556 163 508 200 l 367 200 b 250 99 297 200 250 163 z m 307 99 b 364 143 307 126 331 143 l 440 143 b 497 99 475 143 497 126 b 446 56 499 74 478 56 l 360 56 b 307 99 328 56 307 74 z "},"‘":{"ha":806,"x_min":0,"x_max":0,"o":"m 551 972 l 257 972 l 257 883 b 404 772 257 803 310 772 b 551 883 499 772 551 803 z m 314 915 l 494 915 l 494 885 b 404 829 494 840 464 829 b 314 885 344 829 314 840 z m 257 549 l 307 549 l 307 669 l 379 669 l 379 569 l 431 569 l 431 669 l 501 669 l 501 549 l 551 549 l 551 726 l 257 726 z m 303 357 l 440 306 l 440 303 l 257 303 l 257 250 l 551 250 l 551 311 l 386 374 l 386 376 l 551 438 l 551 500 l 257 500 l 257 447 l 440 447 l 440 444 l 303 393 z m 250 99 b 361 0 250 35 293 0 l 444 0 b 556 99 511 0 556 35 b 439 200 556 163 508 200 l 367 200 b 250 99 297 200 250 163 z m 307 99 b 364 143 307 126 331 143 l 440 143 b 497 99 475 143 497 126 b 446 56 499 74 478 56 l 360 56 b 307 99 328 56 307 74 z "},"’":{"ha":806,"x_min":0,"x_max":0,"o":"m 551 972 l 257 972 l 257 883 b 404 772 257 803 310 772 b 551 883 499 772 551 803 z m 314 915 l 494 915 l 494 885 b 404 829 494 840 464 829 b 314 885 344 829 314 840 z m 257 549 l 307 549 l 307 669 l 379 669 l 379 569 l 431 569 l 431 669 l 501 669 l 501 549 l 551 549 l 551 726 l 257 726 z m 303 357 l 440 306 l 440 303 l 257 303 l 257 250 l 551 250 l 551 311 l 386 374 l 386 376 l 551 438 l 551 500 l 257 500 l 257 447 l 440 447 l 440 444 l 303 393 z m 250 99 b 361 0 250 35 293 0 l 444 0 b 556 99 511 0 556 35 b 439 200 556 163 508 200 l 367 200 b 250 99 297 200 250 163 z m 307 99 b 364 143 307 126 331 143 l 440 143 b 497 99 475 143 497 126 b 446 56 499 74 478 56 l 360 56 b 307 99 328 56 307 74 z "},"\"":{"ha":806,"x_min":0,"x_max":0,"o":"m 551 972 l 257 972 l 257 883 b 404 772 257 803 310 772 b 551 883 499 772 551 803 z m 314 915 l 494 915 l 494 885 b 404 829 494 840 464 829 b 314 885 344 829 314 840 z m 257 549 l 307 549 l 307 669 l 379 669 l 379 569 l 431 569 l 431 669 l 501 669 l 501 549 l 551 549 l 551 726 l 257 726 z m 303 357 l 440 306 l 440 303 l 257 303 l 257 250 l 551 250 l 551 311 l 386 374 l 386 376 l 551 438 l 551 500 l 257 500 l 257 447 l 440 447 l 440 444 l 303 393 z m 250 99 b 361 0 250 35 293 0 l 444 0 b 556 99 511 0 556 35 b 439 200 556 163 508 200 l 367 200 b 250 99 297 200 250 163 z m 307 99 b 364 143 307 126 331 143 l 440 143 b 497 99 475 143 497 126 b 446 56 499 74 478 56 l 360 56 b 307 99 328 56 307 74 z "},"'":{"ha":806,"x_min":0,"x_max":0,"o":"m 551 972 l 257 972 l 257 883 b 404 772 257 803 310 772 b 551 883 499 772 551 803 z m 314 915 l 494 915 l 494 885 b 404 829 494 840 464 829 b 314 885 344 829 314 840 z m 257 549 l 307 549 l 307 669 l 379 669 l 379 569 l 431 569 l 431 669 l 501 669 l 501 549 l 551 549 l 551 726 l 257 726 z m 303 357 l 440 306 l 440 303 l 257 303 l 257 250 l 551 250 l 551 311 l 386 374 l 386 376 l 551 438 l 551 500 l 257 500 l 257 447 l 440 447 l 440 444 l 303 393 z m 250 99 b 361 0 250 35 293 0 l 444 0 b 556 99 511 0 556 35 b 439 200 556 163 508 200 l 367 200 b 250 99 297 200 250 163 z m 307 99 b 364 143 307 126 331 143 l 440 143 b 497 99 475 143 497 126 b 446 56 499 74 478 56 l 360 56 b 307 99 328 56 307 74 z "},"€":{"ha":806,"x_min":0,"x_max":0,"o":"m 551 972 l 257 972 l 257 883 b 404 772 257 803 310 772 b 551 883 499 772 551 803 z m 314 915 l 494 915 l 494 885 b 404 829 494 840 464 829 b 314 885 344 829 314 840 z m 257 549 l 307 549 l 307 669 l 379 669 l 379 569 l 431 569 l 431 669 l 501 669 l 501 549 l 551 549 l 551 726 l 257 726 z m 303 357 l 440 306 l 440 303 l 257 303 l 257 250 l 551 250 l 551 311 l 386 374 l 386 376 l 551 438 l 551 500 l 257 500 l 257 447 l 440 447 l 440 444 l 303 393 z m 250 99 b 361 0 250 35 293 0 l 444 0 b 556 99 511 0 556 35 b 439 200 556 163 508 200 l 367 200 b 250 99 297 200 250 163 z m 307 99 b 364 143 307 126 331 143 l 440 143 b 497 99 475 143 497 126 b 446 56 499 74 478 56 l 360 56 b 307 99 328 56 307 74 z "},"¢":{"ha":806,"x_min":0,"x_max":0,"o":"m 551 972 l 257 972 l 257 883 b 404 772 257 803 310 772 b 551 883 499 772 551 803 z m 314 915 l 494 915 l 494 885 b 404 829 494 840 464 829 b 314 885 344 829 314 840 z m 257 549 l 307 549 l 307 669 l 379 669 l 379 569 l 431 569 l 431 669 l 501 669 l 501 549 l 551 549 l 551 726 l 257 726 z m 303 357 l 440 306 l 440 303 l 257 303 l 257 250 l 551 250 l 551 311 l 386 374 l 386 376 l 551 438 l 551 500 l 257 500 l 257 447 l 440 447 l 440 444 l 303 393 z m 250 99 b 361 0 250 35 293 0 l 444 0 b 556 99 511 0 556 35 b 439 200 556 163 508 200 l 367 200 b 250 99 297 200 250 163 z m 307 99 b 364 143 307 126 331 143 l 440 143 b 497 99 475 143 497 126 b 446 56 499 74 478 56 l 360 56 b 307 99 328 56 307 74 z "},"$":{"ha":806,"x_min":0,"x_max":0,"o":"m 551 972 l 257 972 l 257 883 b 404 772 257 803 310 772 b 551 883 499 772 551 803 z m 314 915 l 494 915 l 494 885 b 404 829 494 840 464 829 b 314 885 344 829 314 840 z m 257 549 l 307 549 l 307 669 l 379 669 l 379 569 l 431 569 l 431 669 l 501 669 l 501 549 l 551 549 l 551 726 l 257 726 z m 303 357 l 440 306 l 440 303 l 257 303 l 257 250 l 551 250 l 551 311 l 386 374 l 386 376 l 551 438 l 551 500 l 257 500 l 257 447 l 440 447 l 440 444 l 303 393 z m 250 99 b 361 0 250 35 293 0 l 444 0 b 556 99 511 0 556 35 b 439 200 556 163 508 200 l 367 200 b 250 99 297 200 250 163 z m 307 99 b 364 143 307 126 331 143 l 440 143 b 497 99 475 143 497 126 b 446 56 499 74 478 56 l 360 56 b 307 99 328 56 307 74 z "},"ƒ":{"ha":806,"x_min":0,"x_max":0,"o":"m 551 972 l 257 972 l 257 883 b 404 772 257 803 310 772 b 551 883 499 772 551 803 z m 314 915 l 494 915 l 494 885 b 404 829 494 840 464 829 b 314 885 344 829 314 840 z m 257 549 l 307 549 l 307 669 l 379 669 l 379 569 l 431 569 l 431 669 l 501 669 l 501 549 l 551 549 l 551 726 l 257 726 z m 303 357 l 440 306 l 440 303 l 257 303 l 257 250 l 551 250 l 551 311 l 386 374 l 386 376 l 551 438 l 551 500 l 257 500 l 257 447 l 440 447 l 440 444 l 303 393 z m 250 99 b 361 0 250 35 293 0 l 444 0 b 556 99 511 0 556 35 b 439 200 556 163 508 200 l 367 200 b 250 99 297 200 250 163 z m 307 99 b 364 143 307 126 331 143 l 440 143 b 497 99 475 143 497 126 b 446 56 499 74 478 56 l 360 56 b 307 99 328 56 307 74 z "},"₣":{"ha":806,"x_min":0,"x_max":0,"o":"m 551 972 l 257 972 l 257 883 b 404 772 257 803 310 772 b 551 883 499 772 551 803 z m 314 915 l 494 915 l 494 885 b 404 829 494 840 464 829 b 314 885 344 829 314 840 z m 257 549 l 307 549 l 307 669 l 379 669 l 379 569 l 431 569 l 431 669 l 501 669 l 501 549 l 551 549 l 551 726 l 257 726 z m 303 357 l 440 306 l 440 303 l 257 303 l 257 250 l 551 250 l 551 311 l 386 374 l 386 376 l 551 438 l 551 500 l 257 500 l 257 447 l 440 447 l 440 444 l 303 393 z m 250 99 b 361 0 250 35 293 0 l 444 0 b 556 99 511 0 556 35 b 439 200 556 163 508 200 l 367 200 b 250 99 297 200 250 163 z m 307 99 b 364 143 307 126 331 143 l 440 143 b 497 99 475 143 497 126 b 446 56 499 74 478 56 l 360 56 b 307 99 328 56 307 74 z "},"£":{"ha":806,"x_min":0,"x_max":0,"o":"m 551 972 l 257 972 l 257 883 b 404 772 257 803 310 772 b 551 883 499 772 551 803 z m 314 915 l 494 915 l 494 885 b 404 829 494 840 464 829 b 314 885 344 829 314 840 z m 257 549 l 307 549 l 307 669 l 379 669 l 379 569 l 431 569 l 431 669 l 501 669 l 501 549 l 551 549 l 551 726 l 257 726 z m 303 357 l 440 306 l 440 303 l 257 303 l 257 250 l 551 250 l 551 311 l 386 374 l 386 376 l 551 438 l 551 500 l 257 500 l 257 447 l 440 447 l 440 444 l 303 393 z m 250 99 b 361 0 250 35 293 0 l 444 0 b 556 99 511 0 556 35 b 439 200 556 163 508 200 l 367 200 b 250 99 297 200 250 163 z m 307 99 b 364 143 307 126 331 143 l 440 143 b 497 99 475 143 497 126 b 446 56 499 74 478 56 l 360 56 b 307 99 328 56 307 74 z "},"¥":{"ha":806,"x_min":0,"x_max":0,"o":"m 551 972 l 257 972 l 257 883 b 404 772 257 803 310 772 b 551 883 499 772 551 803 z m 314 915 l 494 915 l 494 885 b 404 829 494 840 464 829 b 314 885 344 829 314 840 z m 257 549 l 307 549 l 307 669 l 379 669 l 379 569 l 431 569 l 431 669 l 501 669 l 501 549 l 551 549 l 551 726 l 257 726 z m 303 357 l 440 306 l 440 303 l 257 303 l 257 250 l 551 250 l 551 311 l 386 374 l 386 376 l 551 438 l 551 500 l 257 500 l 257 447 l 440 447 l 440 444 l 303 393 z m 250 99 b 361 0 250 35 293 0 l 444 0 b 556 99 511 0 556 35 b 439 200 556 163 508 200 l 367 200 b 250 99 297 200 250 163 z m 307 99 b 364 143 307 126 331 143 l 440 143 b 497 99 475 143 497 126 b 446 56 499 74 478 56 l 360 56 b 307 99 328 56 307 74 z "},"฿":{"ha":806,"x_min":0,"x_max":0,"o":"m 551 972 l 257 972 l 257 883 b 404 772 257 803 310 772 b 551 883 499 772 551 803 z m 314 915 l 494 915 l 494 885 b 404 829 494 840 464 829 b 314 885 344 829 314 840 z m 257 549 l 307 549 l 307 669 l 379 669 l 379 569 l 431 569 l 431 669 l 501 669 l 501 549 l 551 549 l 551 726 l 257 726 z m 303 357 l 440 306 l 440 303 l 257 303 l 257 250 l 551 250 l 551 311 l 386 374 l 386 376 l 551 438 l 551 500 l 257 500 l 257 447 l 440 447 l 440 444 l 303 393 z m 250 99 b 361 0 250 35 293 0 l 444 0 b 556 99 511 0 556 35 b 439 200 556 163 508 200 l 367 200 b 250 99 297 200 250 163 z m 307 99 b 364 143 307 126 331 143 l 440 143 b 497 99 475 143 497 126 b 446 56 499 74 478 56 l 360 56 b 307 99 328 56 307 74 z "},"+":{"ha":806,"x_min":0,"x_max":0,"o":"m 551 972 l 257 972 l 257 883 b 404 772 257 803 310 772 b 551 883 499 772 551 803 z m 314 915 l 494 915 l 494 885 b 404 829 494 840 464 829 b 314 885 344 829 314 840 z m 257 549 l 307 549 l 307 669 l 379 669 l 379 569 l 431 569 l 431 669 l 501 669 l 501 549 l 551 549 l 551 726 l 257 726 z m 303 357 l 440 306 l 440 303 l 257 303 l 257 250 l 551 250 l 551 311 l 386 374 l 386 376 l 551 438 l 551 500 l 257 500 l 257 447 l 440 447 l 440 444 l 303 393 z m 250 99 b 361 0 250 35 293 0 l 444 0 b 556 99 511 0 556 35 b 439 200 556 163 508 200 l 367 200 b 250 99 297 200 250 163 z m 307 99 b 364 143 307 126 331 143 l 440 143 b 497 99 475 143 497 126 b 446 56 499 74 478 56 l 360 56 b 307 99 328 56 307 74 z "},"−":{"ha":806,"x_min":0,"x_max":0,"o":"m 551 972 l 257 972 l 257 883 b 404 772 257 803 310 772 b 551 883 499 772 551 803 z m 314 915 l 494 915 l 494 885 b 404 829 494 840 464 829 b 314 885 344 829 314 840 z m 257 549 l 307 549 l 307 669 l 379 669 l 379 569 l 431 569 l 431 669 l 501 669 l 501 549 l 551 549 l 551 726 l 257 726 z m 303 357 l 440 306 l 440 303 l 257 303 l 257 250 l 551 250 l 551 311 l 386 374 l 386 376 l 551 438 l 551 500 l 257 500 l 257 447 l 440 447 l 440 444 l 303 393 z m 250 99 b 361 0 250 35 293 0 l 444 0 b 556 99 511 0 556 35 b 439 200 556 163 508 200 l 367 200 b 250 99 297 200 250 163 z m 307 99 b 364 143 307 126 331 143 l 440 143 b 497 99 475 143 497 126 b 446 56 499 74 478 56 l 360 56 b 307 99 328 56 307 74 z "},"×":{"ha":806,"x_min":0,"x_max":0,"o":"m 551 972 l 257 972 l 257 883 b 404 772 257 803 310 772 b 551 883 499 772 551 803 z m 314 915 l 494 915 l 494 885 b 404 829 494 840 464 829 b 314 885 344 829 314 840 z m 257 549 l 307 549 l 307 669 l 379 669 l 379 569 l 431 569 l 431 669 l 501 669 l 501 549 l 551 549 l 551 726 l 257 726 z m 303 357 l 440 306 l 440 303 l 257 303 l 257 250 l 551 250 l 551 311 l 386 374 l 386 376 l 551 438 l 551 500 l 257 500 l 257 447 l 440 447 l 440 444 l 303 393 z m 250 99 b 361 0 250 35 293 0 l 444 0 b 556 99 511 0 556 35 b 439 200 556 163 508 200 l 367 200 b 250 99 297 200 250 163 z m 307 99 b 364 143 307 126 331 143 l 440 143 b 497 99 475 143 497 126 b 446 56 499 74 478 56 l 360 56 b 307 99 328 56 307 74 z "},"÷":{"ha":806,"x_min":0,"x_max":0,"o":"m 551 972 l 257 972 l 257 883 b 404 772 257 803 310 772 b 551 883 499 772 551 803 z m 314 915 l 494 915 l 494 885 b 404 829 494 840 464 829 b 314 885 344 829 314 840 z m 257 549 l 307 549 l 307 669 l 379 669 l 379 569 l 431 569 l 431 669 l 501 669 l 501 549 l 551 549 l 551 726 l 257 726 z m 303 357 l 440 306 l 440 303 l 257 303 l 257 250 l 551 250 l 551 311 l 386 374 l 386 376 l 551 438 l 551 500 l 257 500 l 257 447 l 440 447 l 440 444 l 303 393 z m 250 99 b 361 0 250 35 293 0 l 444 0 b 556 99 511 0 556 35 b 439 200 556 163 508 200 l 367 200 b 250 99 297 200 250 163 z m 307 99 b 364 143 307 126 331 143 l 440 143 b 497 99 475 143 497 126 b 446 56 499 74 478 56 l 360 56 b 307 99 328 56 307 74 z "},"=":{"ha":806,"x_min":0,"x_max":0,"o":"m 551 972 l 257 972 l 257 883 b 404 772 257 803 310 772 b 551 883 499 772 551 803 z m 314 915 l 494 915 l 494 885 b 404 829 494 840 464 829 b 314 885 344 829 314 840 z m 257 549 l 307 549 l 307 669 l 379 669 l 379 569 l 431 569 l 431 669 l 501 669 l 501 549 l 551 549 l 551 726 l 257 726 z m 303 357 l 440 306 l 440 303 l 257 303 l 257 250 l 551 250 l 551 311 l 386 374 l 386 376 l 551 438 l 551 500 l 257 500 l 257 447 l 440 447 l 440 444 l 303 393 z m 250 99 b 361 0 250 35 293 0 l 444 0 b 556 99 511 0 556 35 b 439 200 556 163 508 200 l 367 200 b 250 99 297 200 250 163 z m 307 99 b 364 143 307 126 331 143 l 440 143 b 497 99 475 143 497 126 b 446 56 499 74 478 56 l 360 56 b 307 99 328 56 307 74 z "},"%":{"ha":806,"x_min":0,"x_max":0,"o":"m 551 972 l 257 972 l 257 883 b 404 772 257 803 310 772 b 551 883 499 772 551 803 z m 314 915 l 494 915 l 494 885 b 404 829 494 840 464 829 b 314 885 344 829 314 840 z m 257 549 l 307 549 l 307 669 l 379 669 l 379 569 l 431 569 l 431 669 l 501 669 l 501 549 l 551 549 l 551 726 l 257 726 z m 303 357 l 440 306 l 440 303 l 257 303 l 257 250 l 551 250 l 551 311 l 386 374 l 386 376 l 551 438 l 551 500 l 257 500 l 257 447 l 440 447 l 440 444 l 303 393 z m 250 99 b 361 0 250 35 293 0 l 444 0 b 556 99 511 0 556 35 b 439 200 556 163 508 200 l 367 200 b 250 99 297 200 250 163 z m 307 99 b 364 143 307 126 331 143 l 440 143 b 497 99 475 143 497 126 b 446 56 499 74 478 56 l 360 56 b 307 99 328 56 307 74 z "},"@":{"ha":806,"x_min":0,"x_max":0,"o":"m 551 972 l 257 972 l 257 883 b 404 772 257 803 310 772 b 551 883 499 772 551 803 z m 314 915 l 494 915 l 494 885 b 404 829 494 840 464 829 b 314 885 344 829 314 840 z m 257 549 l 307 549 l 307 669 l 379 669 l 379 569 l 431 569 l 431 669 l 501 669 l 501 549 l 551 549 l 551 726 l 257 726 z m 303 357 l 440 306 l 440 303 l 257 303 l 257 250 l 551 250 l 551 311 l 386 374 l 386 376 l 551 438 l 551 500 l 257 500 l 257 447 l 440 447 l 440 444 l 303 393 z m 250 99 b 361 0 250 35 293 0 l 444 0 b 556 99 511 0 556 35 b 439 200 556 163 508 200 l 367 200 b 250 99 297 200 250 163 z m 307 99 b 364 143 307 126 331 143 l 440 143 b 497 99 475 143 497 126 b 446 56 499 74 478 56 l 360 56 b 307 99 328 56 307 74 z "},"&":{"ha":806,"x_min":0,"x_max":0,"o":"m 551 972 l 257 972 l 257 883 b 404 772 257 803 310 772 b 551 883 499 772 551 803 z m 314 915 l 494 915 l 494 885 b 404 829 494 840 464 829 b 314 885 344 829 314 840 z m 257 549 l 307 549 l 307 669 l 379 669 l 379 569 l 431 569 l 431 669 l 501 669 l 501 549 l 551 549 l 551 726 l 257 726 z m 303 357 l 440 306 l 440 303 l 257 303 l 257 250 l 551 250 l 551 311 l 386 374 l 386 376 l 551 438 l 551 500 l 257 500 l 257 447 l 440 447 l 440 444 l 303 393 z m 250 99 b 361 0 250 35 293 0 l 444 0 b 556 99 511 0 556 35 b 439 200 556 163 508 200 l 367 200 b 250 99 297 200 250 163 z m 307 99 b 364 143 307 126 331 143 l 440 143 b 497 99 475 143 497 126 b 446 56 499 74 478 56 l 360 56 b 307 99 328 56 307 74 z "},"§":{"ha":806,"x_min":0,"x_max":0,"o":"m 551 972 l 257 972 l 257 883 b 404 772 257 803 310 772 b 551 883 499 772 551 803 z m 314 915 l 494 915 l 494 885 b 404 829 494 840 464 829 b 314 885 344 829 314 840 z m 257 549 l 307 549 l 307 669 l 379 669 l 379 569 l 431 569 l 431 669 l 501 669 l 501 549 l 551 549 l 551 726 l 257 726 z m 303 357 l 440 306 l 440 303 l 257 303 l 257 250 l 551 250 l 551 311 l 386 374 l 386 376 l 551 438 l 551 500 l 257 500 l 257 447 l 440 447 l 440 444 l 303 393 z m 250 99 b 361 0 250 35 293 0 l 444 0 b 556 99 511 0 556 35 b 439 200 556 163 508 200 l 367 200 b 250 99 297 200 250 163 z m 307 99 b 364 143 307 126 331 143 l 440 143 b 497 99 475 143 497 126 b 446 56 499 74 478 56 l 360 56 b 307 99 328 56 307 74 z "},"©":{"ha":806,"x_min":0,"x_max":0,"o":"m 551 972 l 257 972 l 257 883 b 404 772 257 803 310 772 b 551 883 499 772 551 803 z m 314 915 l 494 915 l 494 885 b 404 829 494 840 464 829 b 314 885 344 829 314 840 z m 257 549 l 307 549 l 307 669 l 379 669 l 379 569 l 431 569 l 431 669 l 501 669 l 501 549 l 551 549 l 551 726 l 257 726 z m 303 357 l 440 306 l 440 303 l 257 303 l 257 250 l 551 250 l 551 311 l 386 374 l 386 376 l 551 438 l 551 500 l 257 500 l 257 447 l 440 447 l 440 444 l 303 393 z m 250 99 b 361 0 250 35 293 0 l 444 0 b 556 99 511 0 556 35 b 439 200 556 163 508 200 l 367 200 b 250 99 297 200 250 163 z m 307 99 b 364 143 307 126 331 143 l 440 143 b 497 99 475 143 497 126 b 446 56 499 74 478 56 l 360 56 b 307 99 328 56 307 74 z "},"®":{"ha":806,"x_min":0,"x_max":0,"o":"m 551 972 l 257 972 l 257 883 b 404 772 257 803 310 772 b 551 883 499 772 551 803 z m 314 915 l 494 915 l 494 885 b 404 829 494 840 464 829 b 314 885 344 829 314 840 z m 257 549 l 307 549 l 307 669 l 379 669 l 379 569 l 431 569 l 431 669 l 501 669 l 501 549 l 551 549 l 551 726 l 257 726 z m 303 357 l 440 306 l 440 303 l 257 303 l 257 250 l 551 250 l 551 311 l 386 374 l 386 376 l 551 438 l 551 500 l 257 500 l 257 447 l 440 447 l 440 444 l 303 393 z m 250 99 b 361 0 250 35 293 0 l 444 0 b 556 99 511 0 556 35 b 439 200 556 163 508 200 l 367 200 b 250 99 297 200 250 163 z m 307 99 b 364 143 307 126 331 143 l 440 143 b 497 99 475 143 497 126 b 446 56 499 74 478 56 l 360 56 b 307 99 328 56 307 74 z "},"™":{"ha":806,"x_min":0,"x_max":0,"o":"m 551 972 l 257 972 l 257 883 b 404 772 257 803 310 772 b 551 883 499 772 551 803 z m 314 915 l 494 915 l 494 885 b 404 829 494 840 464 829 b 314 885 344 829 314 840 z m 257 549 l 307 549 l 307 669 l 379 669 l 379 569 l 431 569 l 431 669 l 501 669 l 501 549 l 551 549 l 551 726 l 257 726 z m 303 357 l 440 306 l 440 303 l 257 303 l 257 250 l 551 250 l 551 311 l 386 374 l 386 376 l 551 438 l 551 500 l 257 500 l 257 447 l 440 447 l 440 444 l 303 393 z m 250 99 b 361 0 250 35 293 0 l 444 0 b 556 99 511 0 556 35 b 439 200 556 163 508 200 l 367 200 b 250 99 297 200 250 163 z m 307 99 b 364 143 307 126 331 143 l 440 143 b 497 99 475 143 497 126 b 446 56 499 74 478 56 l 360 56 b 307 99 328 56 307 74 z "},"°":{"ha":806,"x_min":0,"x_max":0,"o":"m 551 972 l 257 972 l 257 883 b 404 772 257 803 310 772 b 551 883 499 772 551 803 z m 314 915 l 494 915 l 494 885 b 404 829 494 840 464 829 b 314 885 344 829 314 840 z m 257 549 l 307 549 l 307 669 l 379 669 l 379 569 l 431 569 l 431 669 l 501 669 l 501 549 l 551 549 l 551 726 l 257 726 z m 303 357 l 440 306 l 440 303 l 257 303 l 257 250 l 551 250 l 551 311 l 386 374 l 386 376 l 551 438 l 551 500 l 257 500 l 257 447 l 440 447 l 440 444 l 303 393 z m 250 99 b 361 0 250 35 293 0 l 444 0 b 556 99 511 0 556 35 b 439 200 556 163 508 200 l 367 200 b 250 99 297 200 250 163 z m 307 99 b 364 143 307 126 331 143 l 440 143 b 497 99 475 143 497 126 b 446 56 499 74 478 56 l 360 56 b 307 99 328 56 307 74 z "},"¹":{"ha":806,"x_min":0,"x_max":0,"o":"m 551 972 l 257 972 l 257 883 b 404 772 257 803 310 772 b 551 883 499 772 551 803 z m 314 915 l 494 915 l 494 885 b 404 829 494 840 464 829 b 314 885 344 829 314 840 z m 257 549 l 307 549 l 307 669 l 379 669 l 379 569 l 431 569 l 431 669 l 501 669 l 501 549 l 551 549 l 551 726 l 257 726 z m 303 357 l 440 306 l 440 303 l 257 303 l 257 250 l 551 250 l 551 311 l 386 374 l 386 376 l 551 438 l 551 500 l 257 500 l 257 447 l 440 447 l 440 444 l 303 393 z m 250 99 b 361 0 250 35 293 0 l 444 0 b 556 99 511 0 556 35 b 439 200 556 163 508 200 l 367 200 b 250 99 297 200 250 163 z m 307 99 b 364 143 307 126 331 143 l 440 143 b 497 99 475 143 497 126 b 446 56 499 74 478 56 l 360 56 b 307 99 328 56 307 74 z "},"²":{"ha":806,"x_min":0,"x_max":0,"o":"m 551 972 l 257 972 l 257 883 b 404 772 257 803 310 772 b 551 883 499 772 551 803 z m 314 915 l 494 915 l 494 885 b 404 829 494 840 464 829 b 314 885 344 829 314 840 z m 257 549 l 307 549 l 307 669 l 379 669 l 379 569 l 431 569 l 431 669 l 501 669 l 501 549 l 551 549 l 551 726 l 257 726 z m 303 357 l 440 306 l 440 303 l 257 303 l 257 250 l 551 250 l 551 311 l 386 374 l 386 376 l 551 438 l 551 500 l 257 500 l 257 447 l 440 447 l 440 444 l 303 393 z m 250 99 b 361 0 250 35 293 0 l 444 0 b 556 99 511 0 556 35 b 439 200 556 163 508 200 l 367 200 b 250 99 297 200 250 163 z m 307 99 b 364 143 307 126 331 143 l 440 143 b 497 99 475 143 497 126 b 446 56 499 74 478 56 l 360 56 b 307 99 328 56 307 74 z "},"³":{"ha":806,"x_min":0,"x_max":0,"o":"m 551 972 l 257 972 l 257 883 b 404 772 257 803 310 772 b 551 883 499 772 551 803 z m 314 915 l 494 915 l 494 885 b 404 829 494 840 464 829 b 314 885 344 829 314 840 z m 257 549 l 307 549 l 307 669 l 379 669 l 379 569 l 431 569 l 431 669 l 501 669 l 501 549 l 551 549 l 551 726 l 257 726 z m 303 357 l 440 306 l 440 303 l 257 303 l 257 250 l 551 250 l 551 311 l 386 374 l 386 376 l 551 438 l 551 500 l 257 500 l 257 447 l 440 447 l 440 444 l 303 393 z m 250 99 b 361 0 250 35 293 0 l 444 0 b 556 99 511 0 556 35 b 439 200 556 163 508 200 l 367 200 b 250 99 297 200 250 163 z m 307 99 b 364 143 307 126 331 143 l 440 143 b 497 99 475 143 497 126 b 446 56 499 74 478 56 l 360 56 b 307 99 328 56 307 74 z "},"Á":{"ha":806,"x_min":0,"x_max":0,"o":"m 551 972 l 257 972 l 257 883 b 404 772 257 803 310 772 b 551 883 499 772 551 803 z m 314 915 l 494 915 l 494 885 b 404 829 494 840 464 829 b 314 885 344 829 314 840 z m 257 549 l 307 549 l 307 669 l 379 669 l 379 569 l 431 569 l 431 669 l 501 669 l 501 549 l 551 549 l 551 726 l 257 726 z m 303 357 l 440 306 l 440 303 l 257 303 l 257 250 l 551 250 l 551 311 l 386 374 l 386 376 l 551 438 l 551 500 l 257 500 l 257 447 l 440 447 l 440 444 l 303 393 z m 250 99 b 361 0 250 35 293 0 l 444 0 b 556 99 511 0 556 35 b 439 200 556 163 508 200 l 367 200 b 250 99 297 200 250 163 z m 307 99 b 364 143 307 126 331 143 l 440 143 b 497 99 475 143 497 126 b 446 56 499 74 478 56 l 360 56 b 307 99 328 56 307 74 z "},"Ă":{"ha":806,"x_min":0,"x_max":0,"o":"m 553 972 l 257 972 l 257 883 b 404 772 257 803 311 772 b 553 883 499 772 553 803 z m 314 915 l 496 915 l 496 885 b 404 829 496 840 464 829 b 314 885 346 829 314 840 z m 257 549 l 308 549 l 308 669 l 379 669 l 379 569 l 432 569 l 432 669 l 501 669 l 501 549 l 553 549 l 553 726 l 257 726 z m 303 357 l 442 306 l 442 303 l 258 303 l 258 250 l 553 250 l 553 311 l 388 374 l 388 376 l 553 438 l 553 500 l 258 500 l 258 447 l 442 447 l 442 444 l 303 393 z m 250 99 b 361 0 250 35 294 0 l 444 0 b 557 99 513 0 557 35 b 439 200 557 163 508 200 l 367 200 b 250 99 297 200 250 163 z m 308 99 b 365 143 308 126 331 143 l 442 143 b 499 99 476 143 497 126 b 446 56 499 74 478 56 l 360 56 b 308 99 329 56 308 74 z "},"Â":{"ha":806,"x_min":0,"x_max":0,"o":"m 553 972 l 257 972 l 257 883 b 404 772 257 803 311 772 b 553 883 499 772 553 803 z m 314 915 l 496 915 l 496 885 b 404 829 496 840 464 829 b 314 885 346 829 314 840 z m 257 549 l 308 549 l 308 669 l 379 669 l 379 569 l 432 569 l 432 669 l 501 669 l 501 549 l 553 549 l 553 726 l 257 726 z m 303 357 l 442 306 l 442 303 l 258 303 l 258 250 l 553 250 l 553 311 l 388 374 l 388 376 l 553 438 l 553 500 l 258 500 l 258 447 l 442 447 l 442 444 l 303 393 z m 250 99 b 361 0 250 35 294 0 l 444 0 b 557 99 513 0 557 35 b 439 200 557 163 508 200 l 367 200 b 250 99 297 200 250 163 z m 308 99 b 365 143 308 126 331 143 l 442 143 b 499 99 476 143 497 126 b 446 56 499 74 478 56 l 360 56 b 308 99 329 56 308 74 z "},"Ä":{"ha":806,"x_min":0,"x_max":0,"o":"m 553 972 l 257 972 l 257 883 b 404 772 257 803 311 772 b 553 883 499 772 553 803 z m 314 915 l 496 915 l 496 885 b 404 829 496 840 464 829 b 314 885 346 829 314 840 z m 257 549 l 308 549 l 308 669 l 379 669 l 379 569 l 432 569 l 432 669 l 501 669 l 501 549 l 553 549 l 553 726 l 257 726 z m 303 357 l 442 306 l 442 303 l 258 303 l 258 250 l 553 250 l 553 311 l 388 374 l 388 376 l 553 438 l 553 500 l 258 500 l 258 447 l 442 447 l 442 444 l 303 393 z m 250 99 b 361 0 250 35 294 0 l 444 0 b 557 99 513 0 557 35 b 439 200 557 163 508 200 l 367 200 b 250 99 297 200 250 163 z m 308 99 b 365 143 308 126 331 143 l 442 143 b 499 99 476 143 497 126 b 446 56 499 74 478 56 l 360 56 b 308 99 329 56 308 74 z "},"À":{"ha":806,"x_min":0,"x_max":0,"o":"m 553 972 l 257 972 l 257 883 b 404 772 257 803 311 772 b 553 883 499 772 553 803 z m 314 915 l 496 915 l 496 885 b 404 829 496 840 464 829 b 314 885 346 829 314 840 z m 257 549 l 308 549 l 308 669 l 379 669 l 379 569 l 432 569 l 432 669 l 501 669 l 501 549 l 553 549 l 553 726 l 257 726 z m 303 357 l 442 306 l 442 303 l 258 303 l 258 250 l 553 250 l 553 311 l 388 374 l 388 376 l 553 438 l 553 500 l 258 500 l 258 447 l 442 447 l 442 444 l 303 393 z m 250 99 b 361 0 250 35 294 0 l 444 0 b 557 99 513 0 557 35 b 439 200 557 163 508 200 l 367 200 b 250 99 297 200 250 163 z m 308 99 b 365 143 308 126 331 143 l 442 143 b 499 99 476 143 497 126 b 446 56 499 74 478 56 l 360 56 b 308 99 329 56 308 74 z "},"Ā":{"ha":806,"x_min":0,"x_max":0,"o":"m 553 972 l 257 972 l 257 883 b 404 772 257 803 311 772 b 553 883 499 772 553 803 z m 314 915 l 496 915 l 496 885 b 404 829 496 840 464 829 b 314 885 346 829 314 840 z m 257 549 l 308 549 l 308 669 l 379 669 l 379 569 l 432 569 l 432 669 l 501 669 l 501 549 l 553 549 l 553 726 l 257 726 z m 303 357 l 442 306 l 442 303 l 258 303 l 258 250 l 553 250 l 553 311 l 388 374 l 388 376 l 553 438 l 553 500 l 258 500 l 258 447 l 442 447 l 442 444 l 303 393 z m 250 99 b 361 0 250 35 294 0 l 444 0 b 557 99 513 0 557 35 b 439 200 557 163 508 200 l 367 200 b 250 99 297 200 250 163 z m 308 99 b 365 143 308 126 331 143 l 442 143 b 499 99 476 143 497 126 b 446 56 499 74 478 56 l 360 56 b 308 99 329 56 308 74 z "},"Ą":{"ha":806,"x_min":0,"x_max":0,"o":"m 553 972 l 257 972 l 257 883 b 404 772 257 803 311 772 b 553 883 499 772 553 803 z m 314 915 l 496 915 l 496 885 b 404 829 496 840 464 829 b 314 885 346 829 314 840 z m 257 549 l 308 549 l 308 669 l 379 669 l 379 569 l 432 569 l 432 669 l 501 669 l 501 549 l 553 549 l 553 726 l 257 726 z m 303 357 l 442 306 l 442 303 l 258 303 l 258 250 l 553 250 l 553 311 l 388 374 l 388 376 l 553 438 l 553 500 l 258 500 l 258 447 l 442 447 l 442 444 l 303 393 z m 250 99 b 361 0 250 35 294 0 l 444 0 b 557 99 513 0 557 35 b 439 200 557 163 508 200 l 367 200 b 250 99 297 200 250 163 z m 308 99 b 365 143 308 126 331 143 l 442 143 b 499 99 476 143 497 126 b 446 56 499 74 478 56 l 360 56 b 308 99 329 56 308 74 z "},"Å":{"ha":806,"x_min":0,"x_max":0,"o":"m 553 972 l 257 972 l 257 883 b 404 772 257 803 311 772 b 553 883 499 772 553 803 z m 314 915 l 496 915 l 496 885 b 404 829 496 840 464 829 b 314 885 346 829 314 840 z m 257 549 l 308 549 l 308 669 l 379 669 l 379 569 l 432 569 l 432 669 l 501 669 l 501 549 l 553 549 l 553 726 l 257 726 z m 303 357 l 442 306 l 442 303 l 258 303 l 258 250 l 553 250 l 553 311 l 388 374 l 388 376 l 553 438 l 553 500 l 258 500 l 258 447 l 442 447 l 442 444 l 303 393 z m 250 99 b 361 0 250 35 294 0 l 444 0 b 557 99 513 0 557 35 b 439 200 557 163 508 200 l 367 200 b 250 99 297 200 250 163 z m 308 99 b 365 143 308 126 331 143 l 442 143 b 499 99 476 143 497 126 b 446 56 499 74 478 56 l 360 56 b 308 99 329 56 308 74 z "},"Ã":{"ha":806,"x_min":0,"x_max":0,"o":"m 553 972 l 257 972 l 257 883 b 404 772 257 803 311 772 b 553 883 499 772 553 803 z m 314 915 l 496 915 l 496 885 b 404 829 496 840 464 829 b 314 885 346 829 314 840 z m 257 549 l 308 549 l 308 669 l 379 669 l 379 569 l 432 569 l 432 669 l 501 669 l 501 549 l 553 549 l 553 726 l 257 726 z m 303 357 l 442 306 l 442 303 l 258 303 l 258 250 l 553 250 l 553 311 l 388 374 l 388 376 l 553 438 l 553 500 l 258 500 l 258 447 l 442 447 l 442 444 l 303 393 z m 250 99 b 361 0 250 35 294 0 l 444 0 b 557 99 513 0 557 35 b 439 200 557 163 508 200 l 367 200 b 250 99 297 200 250 163 z m 308 99 b 365 143 308 126 331 143 l 442 143 b 499 99 476 143 497 126 b 446 56 499 74 478 56 l 360 56 b 308 99 329 56 308 74 z "},"Æ":{"ha":806,"x_min":0,"x_max":0,"o":"m 553 972 l 257 972 l 257 883 b 404 772 257 803 311 772 b 553 883 499 772 553 803 z m 314 915 l 496 915 l 496 885 b 404 829 496 840 464 829 b 314 885 346 829 314 840 z m 257 549 l 308 549 l 308 669 l 379 669 l 379 569 l 432 569 l 432 669 l 501 669 l 501 549 l 553 549 l 553 726 l 257 726 z m 303 357 l 442 306 l 442 303 l 258 303 l 258 250 l 553 250 l 553 311 l 388 374 l 388 376 l 553 438 l 553 500 l 258 500 l 258 447 l 442 447 l 442 444 l 303 393 z m 250 99 b 361 0 250 35 294 0 l 444 0 b 557 99 513 0 557 35 b 439 200 557 163 508 200 l 367 200 b 250 99 297 200 250 163 z m 308 99 b 365 143 308 126 331 143 l 442 143 b 499 99 476 143 497 126 b 446 56 499 74 478 56 l 360 56 b 308 99 329 56 308 74 z "},"Ç":{"ha":806,"x_min":0,"x_max":0,"o":"m 553 972 l 257 972 l 257 883 b 404 772 257 803 311 772 b 553 883 499 772 553 803 z m 314 915 l 496 915 l 496 885 b 404 829 496 840 464 829 b 314 885 346 829 314 840 z m 257 549 l 308 549 l 308 669 l 379 669 l 379 569 l 432 569 l 432 669 l 501 669 l 501 549 l 553 549 l 553 726 l 257 726 z m 303 357 l 442 306 l 442 303 l 258 303 l 258 250 l 553 250 l 553 311 l 388 374 l 388 376 l 553 438 l 553 500 l 258 500 l 258 447 l 442 447 l 442 444 l 303 393 z m 250 99 b 361 0 250 35 294 0 l 444 0 b 557 99 513 0 557 35 b 439 200 557 163 508 200 l 367 200 b 250 99 297 200 250 163 z m 308 99 b 365 143 308 126 331 143 l 442 143 b 499 99 476 143 497 126 b 446 56 499 74 478 56 l 360 56 b 308 99 329 56 308 74 z "},"É":{"ha":806,"x_min":0,"x_max":0,"o":"m 553 972 l 257 972 l 257 883 b 404 772 257 803 311 772 b 553 883 499 772 553 803 z m 314 915 l 496 915 l 496 885 b 404 829 496 840 464 829 b 314 885 346 829 314 840 z m 257 549 l 308 549 l 308 669 l 379 669 l 379 569 l 432 569 l 432 669 l 501 669 l 501 549 l 553 549 l 553 726 l 257 726 z m 303 357 l 442 306 l 442 303 l 258 303 l 258 250 l 553 250 l 553 311 l 388 374 l 388 376 l 553 438 l 553 500 l 258 500 l 258 447 l 442 447 l 442 444 l 303 393 z m 250 99 b 361 0 250 35 294 0 l 444 0 b 557 99 513 0 557 35 b 439 200 557 163 508 200 l 367 200 b 250 99 297 200 250 163 z m 308 99 b 365 143 308 126 331 143 l 442 143 b 499 99 476 143 497 126 b 446 56 499 74 478 56 l 360 56 b 308 99 329 56 308 74 z "},"Ê":{"ha":806,"x_min":0,"x_max":0,"o":"m 553 972 l 257 972 l 257 883 b 404 772 257 803 311 772 b 553 883 499 772 553 803 z m 314 915 l 496 915 l 496 885 b 404 829 496 840 464 829 b 314 885 346 829 314 840 z m 257 549 l 308 549 l 308 669 l 379 669 l 379 569 l 432 569 l 432 669 l 501 669 l 501 549 l 553 549 l 553 726 l 257 726 z m 303 357 l 442 306 l 442 303 l 258 303 l 258 250 l 553 250 l 553 311 l 388 374 l 388 376 l 553 438 l 553 500 l 258 500 l 258 447 l 442 447 l 442 444 l 303 393 z m 250 99 b 361 0 250 35 294 0 l 444 0 b 557 99 513 0 557 35 b 439 200 557 163 508 200 l 367 200 b 250 99 297 200 250 163 z m 308 99 b 365 143 308 126 331 143 l 442 143 b 499 99 476 143 497 126 b 446 56 499 74 478 56 l 360 56 b 308 99 329 56 308 74 z "},"Ë":{"ha":806,"x_min":0,"x_max":0,"o":"m 553 972 l 257 972 l 257 883 b 404 772 257 803 311 772 b 553 883 499 772 553 803 z m 314 915 l 496 915 l 496 885 b 404 829 496 840 464 829 b 314 885 346 829 314 840 z m 257 549 l 308 549 l 308 669 l 379 669 l 379 569 l 432 569 l 432 669 l 501 669 l 501 549 l 553 549 l 553 726 l 257 726 z m 303 357 l 442 306 l 442 303 l 258 303 l 258 250 l 553 250 l 553 311 l 388 374 l 388 376 l 553 438 l 553 500 l 258 500 l 258 447 l 442 447 l 442 444 l 303 393 z m 250 99 b 361 0 250 35 294 0 l 444 0 b 557 99 513 0 557 35 b 439 200 557 163 508 200 l 367 200 b 250 99 297 200 250 163 z m 308 99 b 365 143 308 126 331 143 l 442 143 b 499 99 476 143 497 126 b 446 56 499 74 478 56 l 360 56 b 308 99 329 56 308 74 z "},"È":{"ha":806,"x_min":0,"x_max":0,"o":"m 553 972 l 257 972 l 257 883 b 404 772 257 803 311 772 b 553 883 499 772 553 803 z m 314 915 l 496 915 l 496 885 b 404 829 496 840 464 829 b 314 885 346 829 314 840 z m 257 549 l 308 549 l 308 669 l 379 669 l 379 569 l 432 569 l 432 669 l 501 669 l 501 549 l 553 549 l 553 726 l 257 726 z m 303 357 l 442 306 l 442 303 l 258 303 l 258 250 l 553 250 l 553 311 l 388 374 l 388 376 l 553 438 l 553 500 l 258 500 l 258 447 l 442 447 l 442 444 l 303 393 z m 250 99 b 361 0 250 35 294 0 l 444 0 b 557 99 513 0 557 35 b 439 200 557 163 508 200 l 367 200 b 250 99 297 200 250 163 z m 308 99 b 365 143 308 126 331 143 l 442 143 b 499 99 476 143 497 126 b 446 56 499 74 478 56 l 360 56 b 308 99 329 56 308 74 z "},"Í":{"ha":806,"x_min":0,"x_max":0,"o":"m 553 972 l 257 972 l 257 883 b 404 772 257 803 311 772 b 553 883 499 772 553 803 z m 314 915 l 496 915 l 496 885 b 404 829 496 840 464 829 b 314 885 346 829 314 840 z m 257 549 l 308 549 l 308 669 l 379 669 l 379 569 l 432 569 l 432 669 l 501 669 l 501 549 l 553 549 l 553 726 l 257 726 z m 303 357 l 442 306 l 442 303 l 258 303 l 258 250 l 553 250 l 553 311 l 388 374 l 388 376 l 553 438 l 553 500 l 258 500 l 258 447 l 442 447 l 442 444 l 303 393 z m 250 99 b 361 0 250 35 294 0 l 444 0 b 557 99 513 0 557 35 b 439 200 557 163 508 200 l 367 200 b 250 99 297 200 250 163 z m 308 99 b 365 143 308 126 331 143 l 442 143 b 499 99 476 143 497 126 b 446 56 499 74 478 56 l 360 56 b 308 99 329 56 308 74 z "},"Î":{"ha":806,"x_min":0,"x_max":0,"o":"m 553 972 l 257 972 l 257 883 b 404 772 257 803 311 772 b 553 883 499 772 553 803 z m 314 915 l 496 915 l 496 885 b 404 829 496 840 464 829 b 314 885 346 829 314 840 z m 257 549 l 308 549 l 308 669 l 379 669 l 379 569 l 432 569 l 432 669 l 501 669 l 501 549 l 553 549 l 553 726 l 257 726 z m 303 357 l 442 306 l 442 303 l 258 303 l 258 250 l 553 250 l 553 311 l 388 374 l 388 376 l 553 438 l 553 500 l 258 500 l 258 447 l 442 447 l 442 444 l 303 393 z m 250 99 b 361 0 250 35 294 0 l 444 0 b 557 99 513 0 557 35 b 439 200 557 163 508 200 l 367 200 b 250 99 297 200 250 163 z m 308 99 b 365 143 308 126 331 143 l 442 143 b 499 99 476 143 497 126 b 446 56 499 74 478 56 l 360 56 b 308 99 329 56 308 74 z "},"Ï":{"ha":806,"x_min":0,"x_max":0,"o":"m 553 972 l 257 972 l 257 883 b 404 772 257 803 311 772 b 553 883 499 772 553 803 z m 314 915 l 496 915 l 496 885 b 404 829 496 840 464 829 b 314 885 346 829 314 840 z m 257 549 l 308 549 l 308 669 l 379 669 l 379 569 l 432 569 l 432 669 l 501 669 l 501 549 l 553 549 l 553 726 l 257 726 z m 303 357 l 442 306 l 442 303 l 258 303 l 258 250 l 553 250 l 553 311 l 388 374 l 388 376 l 553 438 l 553 500 l 258 500 l 258 447 l 442 447 l 442 444 l 303 393 z m 250 99 b 361 0 250 35 294 0 l 444 0 b 557 99 513 0 557 35 b 439 200 557 163 508 200 l 367 200 b 250 99 297 200 250 163 z m 308 99 b 365 143 308 126 331 143 l 442 143 b 499 99 476 143 497 126 b 446 56 499 74 478 56 l 360 56 b 308 99 329 56 308 74 z "},"İ":{"ha":806,"x_min":0,"x_max":0,"o":"m 553 972 l 257 972 l 257 883 b 404 772 257 803 311 772 b 553 883 499 772 553 803 z m 314 915 l 496 915 l 496 885 b 404 829 496 840 464 829 b 314 885 346 829 314 840 z m 257 549 l 308 549 l 308 669 l 379 669 l 379 569 l 432 569 l 432 669 l 501 669 l 501 549 l 553 549 l 553 726 l 257 726 z m 303 357 l 442 306 l 442 303 l 258 303 l 258 250 l 553 250 l 553 311 l 388 374 l 388 376 l 553 438 l 553 500 l 258 500 l 258 447 l 442 447 l 442 444 l 303 393 z m 250 99 b 361 0 250 35 294 0 l 444 0 b 557 99 513 0 557 35 b 439 200 557 163 508 200 l 367 200 b 250 99 297 200 250 163 z m 308 99 b 365 143 308 126 331 143 l 442 143 b 499 99 476 143 497 126 b 446 56 499 74 478 56 l 360 56 b 308 99 329 56 308 74 z "},"Ì":{"ha":806,"x_min":0,"x_max":0,"o":"m 553 972 l 257 972 l 257 883 b 404 772 257 803 311 772 b 553 883 499 772 553 803 z m 314 915 l 496 915 l 496 885 b 404 829 496 840 464 829 b 314 885 346 829 314 840 z m 257 549 l 308 549 l 308 669 l 379 669 l 379 569 l 432 569 l 432 669 l 501 669 l 501 549 l 553 549 l 553 726 l 257 726 z m 303 357 l 442 306 l 442 303 l 258 303 l 258 250 l 553 250 l 553 311 l 388 374 l 388 376 l 553 438 l 553 500 l 258 500 l 258 447 l 442 447 l 442 444 l 303 393 z m 250 99 b 361 0 250 35 294 0 l 444 0 b 557 99 513 0 557 35 b 439 200 557 163 508 200 l 367 200 b 250 99 297 200 250 163 z m 308 99 b 365 143 308 126 331 143 l 442 143 b 499 99 476 143 497 126 b 446 56 499 74 478 56 l 360 56 b 308 99 329 56 308 74 z "},"Ī":{"ha":806,"x_min":0,"x_max":0,"o":"m 553 972 l 257 972 l 257 883 b 404 772 257 803 311 772 b 553 883 499 772 553 803 z m 314 915 l 496 915 l 496 885 b 404 829 496 840 464 829 b 314 885 346 829 314 840 z m 257 549 l 308 549 l 308 669 l 379 669 l 379 569 l 432 569 l 432 669 l 501 669 l 501 549 l 553 549 l 553 726 l 257 726 z m 303 357 l 442 306 l 442 303 l 258 303 l 258 250 l 553 250 l 553 311 l 388 374 l 388 376 l 553 438 l 553 500 l 258 500 l 258 447 l 442 447 l 442 444 l 303 393 z m 250 99 b 361 0 250 35 294 0 l 444 0 b 557 99 513 0 557 35 b 439 200 557 163 508 200 l 367 200 b 250 99 297 200 250 163 z m 308 99 b 365 143 308 126 331 143 l 442 143 b 499 99 476 143 497 126 b 446 56 499 74 478 56 l 360 56 b 308 99 329 56 308 74 z "},"Ñ":{"ha":806,"x_min":0,"x_max":0,"o":"m 553 972 l 257 972 l 257 883 b 404 772 257 803 311 772 b 553 883 499 772 553 803 z m 314 915 l 496 915 l 496 885 b 404 829 496 840 464 829 b 314 885 346 829 314 840 z m 257 549 l 308 549 l 308 669 l 379 669 l 379 569 l 432 569 l 432 669 l 501 669 l 501 549 l 553 549 l 553 726 l 257 726 z m 303 357 l 442 306 l 442 303 l 258 303 l 258 250 l 553 250 l 553 311 l 388 374 l 388 376 l 553 438 l 553 500 l 258 500 l 258 447 l 442 447 l 442 444 l 303 393 z m 250 99 b 361 0 250 35 294 0 l 444 0 b 557 99 513 0 557 35 b 439 200 557 163 508 200 l 367 200 b 250 99 297 200 250 163 z m 308 99 b 365 143 308 126 331 143 l 442 143 b 499 99 476 143 497 126 b 446 56 499 74 478 56 l 360 56 b 308 99 329 56 308 74 z "},"Ó":{"ha":806,"x_min":0,"x_max":0,"o":"m 553 972 l 257 972 l 257 883 b 404 772 257 803 311 772 b 553 883 499 772 553 803 z m 314 915 l 496 915 l 496 885 b 404 829 496 840 464 829 b 314 885 346 829 314 840 z m 257 549 l 308 549 l 308 669 l 379 669 l 379 569 l 432 569 l 432 669 l 501 669 l 501 549 l 553 549 l 553 726 l 257 726 z m 303 357 l 442 306 l 442 303 l 258 303 l 258 250 l 553 250 l 553 311 l 388 374 l 388 376 l 553 438 l 553 500 l 258 500 l 258 447 l 442 447 l 442 444 l 303 393 z m 250 99 b 361 0 250 35 294 0 l 444 0 b 557 99 513 0 557 35 b 439 200 557 163 508 200 l 367 200 b 250 99 297 200 250 163 z m 308 99 b 365 143 308 126 331 143 l 442 143 b 499 99 476 143 497 126 b 446 56 499 74 478 56 l 360 56 b 308 99 329 56 308 74 z "},"Ô":{"ha":806,"x_min":0,"x_max":0,"o":"m 553 972 l 257 972 l 257 883 b 404 772 257 803 311 772 b 553 883 499 772 553 803 z m 314 915 l 496 915 l 496 885 b 404 829 496 840 464 829 b 314 885 346 829 314 840 z m 257 549 l 308 549 l 308 669 l 379 669 l 379 569 l 432 569 l 432 669 l 501 669 l 501 549 l 553 549 l 553 726 l 257 726 z m 303 357 l 442 306 l 442 303 l 258 303 l 258 250 l 553 250 l 553 311 l 388 374 l 388 376 l 553 438 l 553 500 l 258 500 l 258 447 l 442 447 l 442 444 l 303 393 z m 250 99 b 361 0 250 35 294 0 l 444 0 b 557 99 513 0 557 35 b 439 200 557 163 508 200 l 367 200 b 250 99 297 200 250 163 z m 308 99 b 365 143 308 126 331 143 l 442 143 b 499 99 476 143 497 126 b 446 56 499 74 478 56 l 360 56 b 308 99 329 56 308 74 z "},"Ö":{"ha":806,"x_min":0,"x_max":0,"o":"m 553 972 l 257 972 l 257 883 b 404 772 257 803 311 772 b 553 883 499 772 553 803 z m 314 915 l 496 915 l 496 885 b 404 829 496 840 464 829 b 314 885 346 829 314 840 z m 257 549 l 308 549 l 308 669 l 379 669 l 379 569 l 432 569 l 432 669 l 501 669 l 501 549 l 553 549 l 553 726 l 257 726 z m 303 357 l 442 306 l 442 303 l 258 303 l 258 250 l 553 250 l 553 311 l 388 374 l 388 376 l 553 438 l 553 500 l 258 500 l 258 447 l 442 447 l 442 444 l 303 393 z m 250 99 b 361 0 250 35 294 0 l 444 0 b 557 99 513 0 557 35 b 439 200 557 163 508 200 l 367 200 b 250 99 297 200 250 163 z m 308 99 b 365 143 308 126 331 143 l 442 143 b 499 99 476 143 497 126 b 446 56 499 74 478 56 l 360 56 b 308 99 329 56 308 74 z "},"Ò":{"ha":806,"x_min":0,"x_max":0,"o":"m 553 972 l 257 972 l 257 883 b 404 772 257 803 311 772 b 553 883 499 772 553 803 z m 314 915 l 496 915 l 496 885 b 404 829 496 840 464 829 b 314 885 346 829 314 840 z m 257 549 l 308 549 l 308 669 l 379 669 l 379 569 l 432 569 l 432 669 l 501 669 l 501 549 l 553 549 l 553 726 l 257 726 z m 303 357 l 442 306 l 442 303 l 258 303 l 258 250 l 553 250 l 553 311 l 388 374 l 388 376 l 553 438 l 553 500 l 258 500 l 258 447 l 442 447 l 442 444 l 303 393 z m 250 99 b 361 0 250 35 294 0 l 444 0 b 557 99 513 0 557 35 b 439 200 557 163 508 200 l 367 200 b 250 99 297 200 250 163 z m 308 99 b 365 143 308 126 331 143 l 442 143 b 499 99 476 143 497 126 b 446 56 499 74 478 56 l 360 56 b 308 99 329 56 308 74 z "},"Ő":{"ha":806,"x_min":0,"x_max":0,"o":"m 553 972 l 257 972 l 257 883 b 404 772 257 803 311 772 b 553 883 499 772 553 803 z m 314 915 l 496 915 l 496 885 b 404 829 496 840 464 829 b 314 885 346 829 314 840 z m 257 549 l 308 549 l 308 669 l 379 669 l 379 569 l 432 569 l 432 669 l 501 669 l 501 549 l 553 549 l 553 726 l 257 726 z m 303 357 l 442 306 l 442 303 l 258 303 l 258 250 l 553 250 l 553 311 l 388 374 l 388 376 l 553 438 l 553 500 l 258 500 l 258 447 l 442 447 l 442 444 l 303 393 z m 250 99 b 361 0 250 35 294 0 l 444 0 b 557 99 513 0 557 35 b 439 200 557 163 508 200 l 367 200 b 250 99 297 200 250 163 z m 308 99 b 365 143 308 126 331 143 l 442 143 b 499 99 476 143 497 126 b 446 56 499 74 478 56 l 360 56 b 308 99 329 56 308 74 z "},"Ø":{"ha":806,"x_min":0,"x_max":0,"o":"m 553 972 l 257 972 l 257 883 b 404 772 257 803 311 772 b 553 883 499 772 553 803 z m 314 915 l 496 915 l 496 885 b 404 829 496 840 464 829 b 314 885 346 829 314 840 z m 257 549 l 308 549 l 308 669 l 379 669 l 379 569 l 432 569 l 432 669 l 501 669 l 501 549 l 553 549 l 553 726 l 257 726 z m 303 357 l 442 306 l 442 303 l 258 303 l 258 250 l 553 250 l 553 311 l 388 374 l 388 376 l 553 438 l 553 500 l 258 500 l 258 447 l 442 447 l 442 444 l 303 393 z m 250 99 b 361 0 250 35 294 0 l 444 0 b 557 99 513 0 557 35 b 439 200 557 163 508 200 l 367 200 b 250 99 297 200 250 163 z m 308 99 b 365 143 308 126 331 143 l 442 143 b 499 99 476 143 497 126 b 446 56 499 74 478 56 l 360 56 b 308 99 329 56 308 74 z "},"Õ":{"ha":806,"x_min":0,"x_max":0,"o":"m 553 972 l 257 972 l 257 883 b 404 772 257 803 311 772 b 553 883 499 772 553 803 z m 314 915 l 496 915 l 496 885 b 404 829 496 840 464 829 b 314 885 346 829 314 840 z m 257 549 l 308 549 l 308 669 l 379 669 l 379 569 l 432 569 l 432 669 l 501 669 l 501 549 l 553 549 l 553 726 l 257 726 z m 303 357 l 442 306 l 442 303 l 258 303 l 258 250 l 553 250 l 553 311 l 388 374 l 388 376 l 553 438 l 553 500 l 258 500 l 258 447 l 442 447 l 442 444 l 303 393 z m 250 99 b 361 0 250 35 294 0 l 444 0 b 557 99 513 0 557 35 b 439 200 557 163 508 200 l 367 200 b 250 99 297 200 250 163 z m 308 99 b 365 143 308 126 331 143 l 442 143 b 499 99 476 143 497 126 b 446 56 499 74 478 56 l 360 56 b 308 99 329 56 308 74 z "},"Œ":{"ha":806,"x_min":0,"x_max":0,"o":"m 553 972 l 257 972 l 257 883 b 404 772 257 803 311 772 b 553 883 499 772 553 803 z m 314 915 l 496 915 l 496 885 b 404 829 496 840 464 829 b 314 885 346 829 314 840 z m 257 549 l 308 549 l 308 669 l 379 669 l 379 569 l 432 569 l 432 669 l 501 669 l 501 549 l 553 549 l 553 726 l 257 726 z m 303 357 l 442 306 l 442 303 l 258 303 l 258 250 l 553 250 l 553 311 l 388 374 l 388 376 l 553 438 l 553 500 l 258 500 l 258 447 l 442 447 l 442 444 l 303 393 z m 250 99 b 361 0 250 35 294 0 l 444 0 b 557 99 513 0 557 35 b 439 200 557 163 508 200 l 367 200 b 250 99 297 200 250 163 z m 308 99 b 365 143 308 126 331 143 l 442 143 b 499 99 476 143 497 126 b 446 56 499 74 478 56 l 360 56 b 308 99 329 56 308 74 z "},"Š":{"ha":806,"x_min":0,"x_max":0,"o":"m 553 972 l 257 972 l 257 883 b 404 772 257 803 311 772 b 553 883 499 772 553 803 z m 314 915 l 496 915 l 496 885 b 404 829 496 840 464 829 b 314 885 346 829 314 840 z m 257 549 l 308 549 l 308 669 l 379 669 l 379 569 l 432 569 l 432 669 l 501 669 l 501 549 l 553 549 l 553 726 l 257 726 z m 303 357 l 442 306 l 442 303 l 258 303 l 258 250 l 553 250 l 553 311 l 388 374 l 388 376 l 553 438 l 553 500 l 258 500 l 258 447 l 442 447 l 442 444 l 303 393 z m 250 99 b 361 0 250 35 294 0 l 444 0 b 557 99 513 0 557 35 b 439 200 557 163 508 200 l 367 200 b 250 99 297 200 250 163 z m 308 99 b 365 143 308 126 331 143 l 442 143 b 499 99 476 143 497 126 b 446 56 499 74 478 56 l 360 56 b 308 99 329 56 308 74 z "},"Ú":{"ha":806,"x_min":0,"x_max":0,"o":"m 553 972 l 257 972 l 257 883 b 404 772 257 803 311 772 b 553 883 499 772 553 803 z m 314 915 l 496 915 l 496 885 b 404 829 496 840 464 829 b 314 885 346 829 314 840 z m 257 549 l 308 549 l 308 669 l 379 669 l 379 569 l 432 569 l 432 669 l 501 669 l 501 549 l 553 549 l 553 726 l 257 726 z m 303 357 l 442 306 l 442 303 l 258 303 l 258 250 l 553 250 l 553 311 l 388 374 l 388 376 l 553 438 l 553 500 l 258 500 l 258 447 l 442 447 l 442 444 l 303 393 z m 250 99 b 361 0 250 35 294 0 l 444 0 b 557 99 513 0 557 35 b 439 200 557 163 508 200 l 367 200 b 250 99 297 200 250 163 z m 308 99 b 365 143 308 126 331 143 l 442 143 b 499 99 476 143 497 126 b 446 56 499 74 478 56 l 360 56 b 308 99 329 56 308 74 z "},"Û":{"ha":806,"x_min":0,"x_max":0,"o":"m 553 972 l 257 972 l 257 883 b 404 772 257 803 311 772 b 553 883 499 772 553 803 z m 314 915 l 496 915 l 496 885 b 404 829 496 840 464 829 b 314 885 346 829 314 840 z m 257 549 l 308 549 l 308 669 l 379 669 l 379 569 l 432 569 l 432 669 l 501 669 l 501 549 l 553 549 l 553 726 l 257 726 z m 303 357 l 442 306 l 442 303 l 258 303 l 258 250 l 553 250 l 553 311 l 388 374 l 388 376 l 553 438 l 553 500 l 258 500 l 258 447 l 442 447 l 442 444 l 303 393 z m 250 99 b 361 0 250 35 294 0 l 444 0 b 557 99 513 0 557 35 b 439 200 557 163 508 200 l 367 200 b 250 99 297 200 250 163 z m 308 99 b 365 143 308 126 331 143 l 442 143 b 499 99 476 143 497 126 b 446 56 499 74 478 56 l 360 56 b 308 99 329 56 308 74 z "},"Ü":{"ha":806,"x_min":0,"x_max":0,"o":"m 553 972 l 257 972 l 257 883 b 404 772 257 803 311 772 b 553 883 499 772 553 803 z m 314 915 l 496 915 l 496 885 b 404 829 496 840 464 829 b 314 885 346 829 314 840 z m 257 549 l 308 549 l 308 669 l 379 669 l 379 569 l 432 569 l 432 669 l 501 669 l 501 549 l 553 549 l 553 726 l 257 726 z m 303 357 l 442 306 l 442 303 l 258 303 l 258 250 l 553 250 l 553 311 l 388 374 l 388 376 l 553 438 l 553 500 l 258 500 l 258 447 l 442 447 l 442 444 l 303 393 z m 250 99 b 361 0 250 35 294 0 l 444 0 b 557 99 513 0 557 35 b 439 200 557 163 508 200 l 367 200 b 250 99 297 200 250 163 z m 308 99 b 365 143 308 126 331 143 l 442 143 b 499 99 476 143 497 126 b 446 56 499 74 478 56 l 360 56 b 308 99 329 56 308 74 z "},"Ù":{"ha":806,"x_min":0,"x_max":0,"o":"m 553 972 l 257 972 l 257 883 b 404 772 257 803 311 772 b 553 883 499 772 553 803 z m 314 915 l 496 915 l 496 885 b 404 829 496 840 464 829 b 314 885 346 829 314 840 z m 257 549 l 308 549 l 308 669 l 379 669 l 379 569 l 432 569 l 432 669 l 501 669 l 501 549 l 553 549 l 553 726 l 257 726 z m 303 357 l 442 306 l 442 303 l 258 303 l 258 250 l 553 250 l 553 311 l 388 374 l 388 376 l 553 438 l 553 500 l 258 500 l 258 447 l 442 447 l 442 444 l 303 393 z m 250 99 b 361 0 250 35 294 0 l 444 0 b 557 99 513 0 557 35 b 439 200 557 163 508 200 l 367 200 b 250 99 297 200 250 163 z m 308 99 b 365 143 308 126 331 143 l 442 143 b 499 99 476 143 497 126 b 446 56 499 74 478 56 l 360 56 b 308 99 329 56 308 74 z "},"Ý":{"ha":806,"x_min":0,"x_max":0,"o":"m 553 972 l 257 972 l 257 883 b 404 772 257 803 311 772 b 553 883 499 772 553 803 z m 314 915 l 496 915 l 496 885 b 404 829 496 840 464 829 b 314 885 346 829 314 840 z m 257 549 l 308 549 l 308 669 l 379 669 l 379 569 l 432 569 l 432 669 l 501 669 l 501 549 l 553 549 l 553 726 l 257 726 z m 303 357 l 442 306 l 442 303 l 258 303 l 258 250 l 553 250 l 553 311 l 388 374 l 388 376 l 553 438 l 553 500 l 258 500 l 258 447 l 442 447 l 442 444 l 303 393 z m 250 99 b 361 0 250 35 294 0 l 444 0 b 557 99 513 0 557 35 b 439 200 557 163 508 200 l 367 200 b 250 99 297 200 250 163 z m 308 99 b 365 143 308 126 331 143 l 442 143 b 499 99 476 143 497 126 b 446 56 499 74 478 56 l 360 56 b 308 99 329 56 308 74 z "},"Ÿ":{"ha":806,"x_min":0,"x_max":0,"o":"m 553 972 l 257 972 l 257 883 b 404 772 257 803 311 772 b 553 883 499 772 553 803 z m 314 915 l 496 915 l 496 885 b 404 829 496 840 464 829 b 314 885 346 829 314 840 z m 257 549 l 308 549 l 308 669 l 379 669 l 379 569 l 432 569 l 432 669 l 501 669 l 501 549 l 553 549 l 553 726 l 257 726 z m 303 357 l 442 306 l 442 303 l 258 303 l 258 250 l 553 250 l 553 311 l 388 374 l 388 376 l 553 438 l 553 500 l 258 500 l 258 447 l 442 447 l 442 444 l 303 393 z m 250 99 b 361 0 250 35 294 0 l 444 0 b 557 99 513 0 557 35 b 439 200 557 163 508 200 l 367 200 b 250 99 297 200 250 163 z m 308 99 b 365 143 308 126 331 143 l 442 143 b 499 99 476 143 497 126 b 446 56 499 74 478 56 l 360 56 b 308 99 329 56 308 74 z "},"á":{"ha":806,"x_min":0,"x_max":0,"o":"m 553 972 l 257 972 l 257 883 b 404 772 257 803 311 772 b 553 883 499 772 553 803 z m 314 915 l 496 915 l 496 885 b 404 829 496 840 464 829 b 314 885 346 829 314 840 z m 257 549 l 308 549 l 308 669 l 379 669 l 379 569 l 432 569 l 432 669 l 501 669 l 501 549 l 553 549 l 553 726 l 257 726 z m 303 357 l 442 306 l 442 303 l 258 303 l 258 250 l 553 250 l 553 311 l 388 374 l 388 376 l 553 438 l 553 500 l 258 500 l 258 447 l 442 447 l 442 444 l 303 393 z m 250 99 b 361 0 250 35 294 0 l 444 0 b 557 99 513 0 557 35 b 439 200 557 163 508 200 l 367 200 b 250 99 297 200 250 163 z m 308 99 b 365 143 308 126 331 143 l 442 143 b 499 99 476 143 497 126 b 446 56 499 74 478 56 l 360 56 b 308 99 329 56 308 74 z "},"ă":{"ha":806,"x_min":0,"x_max":0,"o":"m 553 972 l 257 972 l 257 883 b 404 772 257 803 311 772 b 553 883 499 772 553 803 z m 314 915 l 496 915 l 496 885 b 404 829 496 840 464 829 b 314 885 346 829 314 840 z m 257 549 l 308 549 l 308 669 l 379 669 l 379 569 l 432 569 l 432 669 l 501 669 l 501 549 l 553 549 l 553 726 l 257 726 z m 303 357 l 442 306 l 442 303 l 258 303 l 258 250 l 553 250 l 553 311 l 388 374 l 388 376 l 553 438 l 553 500 l 258 500 l 258 447 l 442 447 l 442 444 l 303 393 z m 250 99 b 361 0 250 35 294 0 l 444 0 b 557 99 513 0 557 35 b 439 200 557 163 508 200 l 367 200 b 250 99 297 200 250 163 z m 308 99 b 365 143 308 126 331 143 l 442 143 b 499 99 476 143 497 126 b 446 56 499 74 478 56 l 360 56 b 308 99 329 56 308 74 z "},"â":{"ha":806,"x_min":0,"x_max":0,"o":"m 553 972 l 257 972 l 257 883 b 404 772 257 803 311 772 b 553 883 499 772 553 803 z m 314 915 l 496 915 l 496 885 b 404 829 496 840 464 829 b 314 885 346 829 314 840 z m 257 549 l 308 549 l 308 669 l 379 669 l 379 569 l 432 569 l 432 669 l 501 669 l 501 549 l 553 549 l 553 726 l 257 726 z m 303 357 l 442 306 l 442 303 l 258 303 l 258 250 l 553 250 l 553 311 l 388 374 l 388 376 l 553 438 l 553 500 l 258 500 l 258 447 l 442 447 l 442 444 l 303 393 z m 250 99 b 361 0 250 35 294 0 l 444 0 b 557 99 513 0 557 35 b 439 200 557 163 508 200 l 367 200 b 250 99 297 200 250 163 z m 308 99 b 365 143 308 126 331 143 l 442 143 b 499 99 476 143 497 126 b 446 56 499 74 478 56 l 360 56 b 308 99 329 56 308 74 z "},"ä":{"ha":806,"x_min":0,"x_max":0,"o":"m 553 972 l 257 972 l 257 883 b 404 772 257 803 311 772 b 553 883 499 772 553 803 z m 314 915 l 496 915 l 496 885 b 404 829 496 840 464 829 b 314 885 346 829 314 840 z m 257 549 l 308 549 l 308 669 l 379 669 l 379 569 l 432 569 l 432 669 l 501 669 l 501 549 l 553 549 l 553 726 l 257 726 z m 303 357 l 442 306 l 442 303 l 258 303 l 258 250 l 553 250 l 553 311 l 388 374 l 388 376 l 553 438 l 553 500 l 258 500 l 258 447 l 442 447 l 442 444 l 303 393 z m 250 99 b 361 0 250 35 294 0 l 444 0 b 557 99 513 0 557 35 b 439 200 557 163 508 200 l 367 200 b 250 99 297 200 250 163 z m 308 99 b 365 143 308 126 331 143 l 442 143 b 499 99 476 143 497 126 b 446 56 499 74 478 56 l 360 56 b 308 99 329 56 308 74 z "},"à":{"ha":806,"x_min":0,"x_max":0,"o":"m 553 972 l 257 972 l 257 883 b 404 772 257 803 311 772 b 553 883 499 772 553 803 z m 314 915 l 496 915 l 496 885 b 404 829 496 840 464 829 b 314 885 346 829 314 840 z m 257 549 l 308 549 l 308 669 l 379 669 l 379 569 l 432 569 l 432 669 l 501 669 l 501 549 l 553 549 l 553 726 l 257 726 z m 303 357 l 442 306 l 442 303 l 258 303 l 258 250 l 553 250 l 553 311 l 388 374 l 388 376 l 553 438 l 553 500 l 258 500 l 258 447 l 442 447 l 442 444 l 303 393 z m 250 99 b 361 0 250 35 294 0 l 444 0 b 557 99 513 0 557 35 b 439 200 557 163 508 200 l 367 200 b 250 99 297 200 250 163 z m 308 99 b 365 143 308 126 331 143 l 442 143 b 499 99 476 143 497 126 b 446 56 499 74 478 56 l 360 56 b 308 99 329 56 308 74 z "},"å":{"ha":806,"x_min":0,"x_max":0,"o":"m 553 972 l 257 972 l 257 883 b 404 772 257 803 311 772 b 553 883 499 772 553 803 z m 314 915 l 496 915 l 496 885 b 404 829 496 840 464 829 b 314 885 346 829 314 840 z m 257 549 l 308 549 l 308 669 l 379 669 l 379 569 l 432 569 l 432 669 l 501 669 l 501 549 l 553 549 l 553 726 l 257 726 z m 303 357 l 442 306 l 442 303 l 258 303 l 258 250 l 553 250 l 553 311 l 388 374 l 388 376 l 553 438 l 553 500 l 258 500 l 258 447 l 442 447 l 442 444 l 303 393 z m 250 99 b 361 0 250 35 294 0 l 444 0 b 557 99 513 0 557 35 b 439 200 557 163 508 200 l 367 200 b 250 99 297 200 250 163 z m 308 99 b 365 143 308 126 331 143 l 442 143 b 499 99 476 143 497 126 b 446 56 499 74 478 56 l 360 56 b 308 99 329 56 308 74 z "},"ã":{"ha":806,"x_min":0,"x_max":0,"o":"m 553 972 l 257 972 l 257 883 b 404 772 257 803 311 772 b 553 883 499 772 553 803 z m 314 915 l 496 915 l 496 885 b 404 829 496 840 464 829 b 314 885 346 829 314 840 z m 257 549 l 308 549 l 308 669 l 379 669 l 379 569 l 432 569 l 432 669 l 501 669 l 501 549 l 553 549 l 553 726 l 257 726 z m 303 357 l 442 306 l 442 303 l 258 303 l 258 250 l 553 250 l 553 311 l 388 374 l 388 376 l 553 438 l 553 500 l 258 500 l 258 447 l 442 447 l 442 444 l 303 393 z m 250 99 b 361 0 250 35 294 0 l 444 0 b 557 99 513 0 557 35 b 439 200 557 163 508 200 l 367 200 b 250 99 297 200 250 163 z m 308 99 b 365 143 308 126 331 143 l 442 143 b 499 99 476 143 497 126 b 446 56 499 74 478 56 l 360 56 b 308 99 329 56 308 74 z "},"æ":{"ha":806,"x_min":0,"x_max":0,"o":"m 553 972 l 257 972 l 257 883 b 404 772 257 803 311 772 b 553 883 499 772 553 803 z m 314 915 l 496 915 l 496 885 b 404 829 496 840 464 829 b 314 885 346 829 314 840 z m 257 549 l 308 549 l 308 669 l 379 669 l 379 569 l 432 569 l 432 669 l 501 669 l 501 549 l 553 549 l 553 726 l 257 726 z m 303 357 l 442 306 l 442 303 l 258 303 l 258 250 l 553 250 l 553 311 l 388 374 l 388 376 l 553 438 l 553 500 l 258 500 l 258 447 l 442 447 l 442 444 l 303 393 z m 250 99 b 361 0 250 35 294 0 l 444 0 b 557 99 513 0 557 35 b 439 200 557 163 508 200 l 367 200 b 250 99 297 200 250 163 z m 308 99 b 365 143 308 126 331 143 l 442 143 b 499 99 476 143 497 126 b 446 56 499 74 478 56 l 360 56 b 308 99 329 56 308 74 z "},"ç":{"ha":806,"x_min":0,"x_max":0,"o":"m 553 972 l 257 972 l 257 883 b 404 772 257 803 311 772 b 553 883 499 772 553 803 z m 314 915 l 496 915 l 496 885 b 404 829 496 840 464 829 b 314 885 346 829 314 840 z m 257 549 l 308 549 l 308 669 l 379 669 l 379 569 l 432 569 l 432 669 l 501 669 l 501 549 l 553 549 l 553 726 l 257 726 z m 303 357 l 442 306 l 442 303 l 258 303 l 258 250 l 553 250 l 553 311 l 388 374 l 388 376 l 553 438 l 553 500 l 258 500 l 258 447 l 442 447 l 442 444 l 303 393 z m 250 99 b 361 0 250 35 294 0 l 444 0 b 557 99 513 0 557 35 b 439 200 557 163 508 200 l 367 200 b 250 99 297 200 250 163 z m 308 99 b 365 143 308 126 331 143 l 442 143 b 499 99 476 143 497 126 b 446 56 499 74 478 56 l 360 56 b 308 99 329 56 308 74 z "},"é":{"ha":806,"x_min":0,"x_max":0,"o":"m 553 972 l 257 972 l 257 883 b 404 772 257 803 311 772 b 553 883 499 772 553 803 z m 314 915 l 496 915 l 496 885 b 404 829 496 840 464 829 b 314 885 346 829 314 840 z m 257 549 l 308 549 l 308 669 l 379 669 l 379 569 l 432 569 l 432 669 l 501 669 l 501 549 l 553 549 l 553 726 l 257 726 z m 303 357 l 442 306 l 442 303 l 258 303 l 258 250 l 553 250 l 553 311 l 388 374 l 388 376 l 553 438 l 553 500 l 258 500 l 258 447 l 442 447 l 442 444 l 303 393 z m 250 99 b 361 0 250 35 294 0 l 444 0 b 557 99 513 0 557 35 b 439 200 557 163 508 200 l 367 200 b 250 99 297 200 250 163 z m 308 99 b 365 143 308 126 331 143 l 442 143 b 499 99 476 143 497 126 b 446 56 499 74 478 56 l 360 56 b 308 99 329 56 308 74 z "},"ê":{"ha":806,"x_min":0,"x_max":0,"o":"m 553 972 l 257 972 l 257 883 b 404 772 257 803 311 772 b 553 883 499 772 553 803 z m 314 915 l 496 915 l 496 885 b 404 829 496 840 464 829 b 314 885 346 829 314 840 z m 257 549 l 308 549 l 308 669 l 379 669 l 379 569 l 432 569 l 432 669 l 501 669 l 501 549 l 553 549 l 553 726 l 257 726 z m 303 357 l 442 306 l 442 303 l 258 303 l 258 250 l 553 250 l 553 311 l 388 374 l 388 376 l 553 438 l 553 500 l 258 500 l 258 447 l 442 447 l 442 444 l 303 393 z m 250 99 b 361 0 250 35 294 0 l 444 0 b 557 99 513 0 557 35 b 439 200 557 163 508 200 l 367 200 b 250 99 297 200 250 163 z m 308 99 b 365 143 308 126 331 143 l 442 143 b 499 99 476 143 497 126 b 446 56 499 74 478 56 l 360 56 b 308 99 329 56 308 74 z "},"ë":{"ha":806,"x_min":0,"x_max":0,"o":"m 553 972 l 257 972 l 257 883 b 404 772 257 803 311 772 b 553 883 499 772 553 803 z m 314 915 l 496 915 l 496 885 b 404 829 496 840 464 829 b 314 885 346 829 314 840 z m 257 549 l 308 549 l 308 669 l 379 669 l 379 569 l 432 569 l 432 669 l 501 669 l 501 549 l 553 549 l 553 726 l 257 726 z m 303 357 l 442 306 l 442 303 l 258 303 l 258 250 l 553 250 l 553 311 l 388 374 l 388 376 l 553 438 l 553 500 l 258 500 l 258 447 l 442 447 l 442 444 l 303 393 z m 250 99 b 361 0 250 35 294 0 l 444 0 b 557 99 513 0 557 35 b 439 200 557 163 508 200 l 367 200 b 250 99 297 200 250 163 z m 308 99 b 365 143 308 126 331 143 l 442 143 b 499 99 476 143 497 126 b 446 56 499 74 478 56 l 360 56 b 308 99 329 56 308 74 z "},"è":{"ha":806,"x_min":0,"x_max":0,"o":"m 553 972 l 257 972 l 257 883 b 404 772 257 803 311 772 b 553 883 499 772 553 803 z m 314 915 l 496 915 l 496 885 b 404 829 496 840 464 829 b 314 885 346 829 314 840 z m 257 549 l 308 549 l 308 669 l 379 669 l 379 569 l 432 569 l 432 669 l 501 669 l 501 549 l 553 549 l 553 726 l 257 726 z m 303 357 l 442 306 l 442 303 l 258 303 l 258 250 l 553 250 l 553 311 l 388 374 l 388 376 l 553 438 l 553 500 l 258 500 l 258 447 l 442 447 l 442 444 l 303 393 z m 250 99 b 361 0 250 35 294 0 l 444 0 b 557 99 513 0 557 35 b 439 200 557 163 508 200 l 367 200 b 250 99 297 200 250 163 z m 308 99 b 365 143 308 126 331 143 l 442 143 b 499 99 476 143 497 126 b 446 56 499 74 478 56 l 360 56 b 308 99 329 56 308 74 z "},"ħ":{"ha":806,"x_min":0,"x_max":0,"o":"m 553 972 l 257 972 l 257 883 b 404 772 257 803 311 772 b 553 883 499 772 553 803 z m 314 915 l 496 915 l 496 885 b 404 829 496 840 464 829 b 314 885 346 829 314 840 z m 257 549 l 308 549 l 308 669 l 379 669 l 379 569 l 432 569 l 432 669 l 501 669 l 501 549 l 553 549 l 553 726 l 257 726 z m 303 357 l 442 306 l 442 303 l 258 303 l 258 250 l 553 250 l 553 311 l 388 374 l 388 376 l 553 438 l 553 500 l 258 500 l 258 447 l 442 447 l 442 444 l 303 393 z m 250 99 b 361 0 250 35 294 0 l 444 0 b 557 99 513 0 557 35 b 439 200 557 163 508 200 l 367 200 b 250 99 297 200 250 163 z m 308 99 b 365 143 308 126 331 143 l 442 143 b 499 99 476 143 497 126 b 446 56 499 74 478 56 l 360 56 b 308 99 329 56 308 74 z "},"í":{"ha":806,"x_min":0,"x_max":0,"o":"m 553 972 l 257 972 l 257 883 b 404 772 257 803 311 772 b 553 883 499 772 553 803 z m 314 915 l 496 915 l 496 885 b 404 829 496 840 464 829 b 314 885 346 829 314 840 z m 257 549 l 308 549 l 308 669 l 379 669 l 379 569 l 432 569 l 432 669 l 501 669 l 501 549 l 553 549 l 553 726 l 257 726 z m 303 357 l 442 306 l 442 303 l 258 303 l 258 250 l 553 250 l 553 311 l 388 374 l 388 376 l 553 438 l 553 500 l 258 500 l 258 447 l 442 447 l 442 444 l 303 393 z m 250 99 b 361 0 250 35 294 0 l 444 0 b 557 99 513 0 557 35 b 439 200 557 163 508 200 l 367 200 b 250 99 297 200 250 163 z m 308 99 b 365 143 308 126 331 143 l 442 143 b 499 99 476 143 497 126 b 446 56 499 74 478 56 l 360 56 b 308 99 329 56 308 74 z "},"î":{"ha":806,"x_min":0,"x_max":0,"o":"m 553 972 l 257 972 l 257 883 b 404 772 257 803 311 772 b 553 883 499 772 553 803 z m 314 915 l 496 915 l 496 885 b 404 829 496 840 464 829 b 314 885 346 829 314 840 z m 257 549 l 308 549 l 308 669 l 379 669 l 379 569 l 432 569 l 432 669 l 501 669 l 501 549 l 553 549 l 553 726 l 257 726 z m 303 357 l 442 306 l 442 303 l 258 303 l 258 250 l 553 250 l 553 311 l 388 374 l 388 376 l 553 438 l 553 500 l 258 500 l 258 447 l 442 447 l 442 444 l 303 393 z m 250 99 b 361 0 250 35 294 0 l 444 0 b 557 99 513 0 557 35 b 439 200 557 163 508 200 l 367 200 b 250 99 297 200 250 163 z m 308 99 b 365 143 308 126 331 143 l 442 143 b 499 99 476 143 497 126 b 446 56 499 74 478 56 l 360 56 b 308 99 329 56 308 74 z "},"ï":{"ha":806,"x_min":0,"x_max":0,"o":"m 553 972 l 257 972 l 257 883 b 404 772 257 803 311 772 b 553 883 499 772 553 803 z m 314 915 l 496 915 l 496 885 b 404 829 496 840 464 829 b 314 885 346 829 314 840 z m 257 549 l 308 549 l 308 669 l 379 669 l 379 569 l 432 569 l 432 669 l 501 669 l 501 549 l 553 549 l 553 726 l 257 726 z m 303 357 l 442 306 l 442 303 l 258 303 l 258 250 l 553 250 l 553 311 l 388 374 l 388 376 l 553 438 l 553 500 l 258 500 l 258 447 l 442 447 l 442 444 l 303 393 z m 250 99 b 361 0 250 35 294 0 l 444 0 b 557 99 513 0 557 35 b 439 200 557 163 508 200 l 367 200 b 250 99 297 200 250 163 z m 308 99 b 365 143 308 126 331 143 l 442 143 b 499 99 476 143 497 126 b 446 56 499 74 478 56 l 360 56 b 308 99 329 56 308 74 z "},"ì":{"ha":806,"x_min":0,"x_max":0,"o":"m 553 972 l 257 972 l 257 883 b 404 772 257 803 311 772 b 553 883 499 772 553 803 z m 314 915 l 496 915 l 496 885 b 404 829 496 840 464 829 b 314 885 346 829 314 840 z m 257 549 l 308 549 l 308 669 l 379 669 l 379 569 l 432 569 l 432 669 l 501 669 l 501 549 l 553 549 l 553 726 l 257 726 z m 303 357 l 442 306 l 442 303 l 258 303 l 258 250 l 553 250 l 553 311 l 388 374 l 388 376 l 553 438 l 553 500 l 258 500 l 258 447 l 442 447 l 442 444 l 303 393 z m 250 99 b 361 0 250 35 294 0 l 444 0 b 557 99 513 0 557 35 b 439 200 557 163 508 200 l 367 200 b 250 99 297 200 250 163 z m 308 99 b 365 143 308 126 331 143 l 442 143 b 499 99 476 143 497 126 b 446 56 499 74 478 56 l 360 56 b 308 99 329 56 308 74 z "},"į":{"ha":806,"x_min":0,"x_max":0,"o":"m 553 972 l 257 972 l 257 883 b 404 772 257 803 311 772 b 553 883 499 772 553 803 z m 314 915 l 496 915 l 496 885 b 404 829 496 840 464 829 b 314 885 346 829 314 840 z m 257 549 l 308 549 l 308 669 l 379 669 l 379 569 l 432 569 l 432 669 l 501 669 l 501 549 l 553 549 l 553 726 l 257 726 z m 303 357 l 442 306 l 442 303 l 258 303 l 258 250 l 553 250 l 553 311 l 388 374 l 388 376 l 553 438 l 553 500 l 258 500 l 258 447 l 442 447 l 442 444 l 303 393 z m 250 99 b 361 0 250 35 294 0 l 444 0 b 557 99 513 0 557 35 b 439 200 557 163 508 200 l 367 200 b 250 99 297 200 250 163 z m 308 99 b 365 143 308 126 331 143 l 442 143 b 499 99 476 143 497 126 b 446 56 499 74 478 56 l 360 56 b 308 99 329 56 308 74 z "},"ń":{"ha":806,"x_min":0,"x_max":0,"o":"m 553 972 l 257 972 l 257 883 b 404 772 257 803 311 772 b 553 883 499 772 553 803 z m 314 915 l 496 915 l 496 885 b 404 829 496 840 464 829 b 314 885 346 829 314 840 z m 257 549 l 308 549 l 308 669 l 379 669 l 379 569 l 432 569 l 432 669 l 501 669 l 501 549 l 553 549 l 553 726 l 257 726 z m 303 357 l 442 306 l 442 303 l 258 303 l 258 250 l 553 250 l 553 311 l 388 374 l 388 376 l 553 438 l 553 500 l 258 500 l 258 447 l 442 447 l 442 444 l 303 393 z m 250 99 b 361 0 250 35 294 0 l 444 0 b 557 99 513 0 557 35 b 439 200 557 163 508 200 l 367 200 b 250 99 297 200 250 163 z m 308 99 b 365 143 308 126 331 143 l 442 143 b 499 99 476 143 497 126 b 446 56 499 74 478 56 l 360 56 b 308 99 329 56 308 74 z "},"ň":{"ha":806,"x_min":0,"x_max":0,"o":"m 553 972 l 257 972 l 257 883 b 404 772 257 803 311 772 b 553 883 499 772 553 803 z m 314 915 l 496 915 l 496 885 b 404 829 496 840 464 829 b 314 885 346 829 314 840 z m 257 549 l 308 549 l 308 669 l 379 669 l 379 569 l 432 569 l 432 669 l 501 669 l 501 549 l 553 549 l 553 726 l 257 726 z m 303 357 l 442 306 l 442 303 l 258 303 l 258 250 l 553 250 l 553 311 l 388 374 l 388 376 l 553 438 l 553 500 l 258 500 l 258 447 l 442 447 l 442 444 l 303 393 z m 250 99 b 361 0 250 35 294 0 l 444 0 b 557 99 513 0 557 35 b 439 200 557 163 508 200 l 367 200 b 250 99 297 200 250 163 z m 308 99 b 365 143 308 126 331 143 l 442 143 b 499 99 476 143 497 126 b 446 56 499 74 478 56 l 360 56 b 308 99 329 56 308 74 z "},"ŋ":{"ha":806,"x_min":0,"x_max":0,"o":"m 553 972 l 257 972 l 257 883 b 404 772 257 803 311 772 b 553 883 499 772 553 803 z m 314 915 l 496 915 l 496 885 b 404 829 496 840 464 829 b 314 885 346 829 314 840 z m 257 549 l 308 549 l 308 669 l 379 669 l 379 569 l 432 569 l 432 669 l 501 669 l 501 549 l 553 549 l 553 726 l 257 726 z m 303 357 l 442 306 l 442 303 l 258 303 l 258 250 l 553 250 l 553 311 l 388 374 l 388 376 l 553 438 l 553 500 l 258 500 l 258 447 l 442 447 l 442 444 l 303 393 z m 250 99 b 361 0 250 35 294 0 l 444 0 b 557 99 513 0 557 35 b 439 200 557 163 508 200 l 367 200 b 250 99 297 200 250 163 z m 308 99 b 365 143 308 126 331 143 l 442 143 b 499 99 476 143 497 126 b 446 56 499 74 478 56 l 360 56 b 308 99 329 56 308 74 z "},"ñ":{"ha":806,"x_min":0,"x_max":0,"o":"m 553 972 l 257 972 l 257 883 b 404 772 257 803 311 772 b 553 883 499 772 553 803 z m 314 915 l 496 915 l 496 885 b 404 829 496 840 464 829 b 314 885 346 829 314 840 z m 257 549 l 308 549 l 308 669 l 379 669 l 379 569 l 432 569 l 432 669 l 501 669 l 501 549 l 553 549 l 553 726 l 257 726 z m 303 357 l 442 306 l 442 303 l 258 303 l 258 250 l 553 250 l 553 311 l 388 374 l 388 376 l 553 438 l 553 500 l 258 500 l 258 447 l 442 447 l 442 444 l 303 393 z m 250 99 b 361 0 250 35 294 0 l 444 0 b 557 99 513 0 557 35 b 439 200 557 163 508 200 l 367 200 b 250 99 297 200 250 163 z m 308 99 b 365 143 308 126 331 143 l 442 143 b 499 99 476 143 497 126 b 446 56 499 74 478 56 l 360 56 b 308 99 329 56 308 74 z "},"ó":{"ha":806,"x_min":0,"x_max":0,"o":"m 553 972 l 257 972 l 257 883 b 404 772 257 803 311 772 b 553 883 499 772 553 803 z m 314 915 l 496 915 l 496 885 b 404 829 496 840 464 829 b 314 885 346 829 314 840 z m 257 549 l 308 549 l 308 669 l 379 669 l 379 569 l 432 569 l 432 669 l 501 669 l 501 549 l 553 549 l 553 726 l 257 726 z m 303 357 l 442 306 l 442 303 l 258 303 l 258 250 l 553 250 l 553 311 l 388 374 l 388 376 l 553 438 l 553 500 l 258 500 l 258 447 l 442 447 l 442 444 l 303 393 z m 250 99 b 361 0 250 35 294 0 l 444 0 b 557 99 513 0 557 35 b 439 200 557 163 508 200 l 367 200 b 250 99 297 200 250 163 z m 308 99 b 365 143 308 126 331 143 l 442 143 b 499 99 476 143 497 126 b 446 56 499 74 478 56 l 360 56 b 308 99 329 56 308 74 z "},"ô":{"ha":806,"x_min":0,"x_max":0,"o":"m 553 972 l 257 972 l 257 883 b 404 772 257 803 311 772 b 553 883 499 772 553 803 z m 314 915 l 496 915 l 496 885 b 404 829 496 840 464 829 b 314 885 346 829 314 840 z m 257 549 l 308 549 l 308 669 l 379 669 l 379 569 l 432 569 l 432 669 l 501 669 l 501 549 l 553 549 l 553 726 l 257 726 z m 303 357 l 442 306 l 442 303 l 258 303 l 258 250 l 553 250 l 553 311 l 388 374 l 388 376 l 553 438 l 553 500 l 258 500 l 258 447 l 442 447 l 442 444 l 303 393 z m 250 99 b 361 0 250 35 294 0 l 444 0 b 557 99 513 0 557 35 b 439 200 557 163 508 200 l 367 200 b 250 99 297 200 250 163 z m 308 99 b 365 143 308 126 331 143 l 442 143 b 499 99 476 143 497 126 b 446 56 499 74 478 56 l 360 56 b 308 99 329 56 308 74 z "},"ö":{"ha":806,"x_min":0,"x_max":0,"o":"m 553 972 l 257 972 l 257 883 b 404 772 257 803 311 772 b 553 883 499 772 553 803 z m 314 915 l 496 915 l 496 885 b 404 829 496 840 464 829 b 314 885 346 829 314 840 z m 257 549 l 308 549 l 308 669 l 379 669 l 379 569 l 432 569 l 432 669 l 501 669 l 501 549 l 553 549 l 553 726 l 257 726 z m 303 357 l 442 306 l 442 303 l 258 303 l 258 250 l 553 250 l 553 311 l 388 374 l 388 376 l 553 438 l 553 500 l 258 500 l 258 447 l 442 447 l 442 444 l 303 393 z m 250 99 b 361 0 250 35 294 0 l 444 0 b 557 99 513 0 557 35 b 439 200 557 163 508 200 l 367 200 b 250 99 297 200 250 163 z m 308 99 b 365 143 308 126 331 143 l 442 143 b 499 99 476 143 497 126 b 446 56 499 74 478 56 l 360 56 b 308 99 329 56 308 74 z "},"ò":{"ha":806,"x_min":0,"x_max":0,"o":"m 553 972 l 257 972 l 257 883 b 404 772 257 803 311 772 b 553 883 499 772 553 803 z m 314 915 l 496 915 l 496 885 b 404 829 496 840 464 829 b 314 885 346 829 314 840 z m 257 549 l 308 549 l 308 669 l 379 669 l 379 569 l 432 569 l 432 669 l 501 669 l 501 549 l 553 549 l 553 726 l 257 726 z m 303 357 l 442 306 l 442 303 l 258 303 l 258 250 l 553 250 l 553 311 l 388 374 l 388 376 l 553 438 l 553 500 l 258 500 l 258 447 l 442 447 l 442 444 l 303 393 z m 250 99 b 361 0 250 35 294 0 l 444 0 b 557 99 513 0 557 35 b 439 200 557 163 508 200 l 367 200 b 250 99 297 200 250 163 z m 308 99 b 365 143 308 126 331 143 l 442 143 b 499 99 476 143 497 126 b 446 56 499 74 478 56 l 360 56 b 308 99 329 56 308 74 z "},"ő":{"ha":806,"x_min":0,"x_max":0,"o":"m 553 972 l 257 972 l 257 883 b 404 772 257 803 311 772 b 553 883 499 772 553 803 z m 314 915 l 496 915 l 496 885 b 404 829 496 840 464 829 b 314 885 346 829 314 840 z m 257 549 l 308 549 l 308 669 l 379 669 l 379 569 l 432 569 l 432 669 l 501 669 l 501 549 l 553 549 l 553 726 l 257 726 z m 303 357 l 442 306 l 442 303 l 258 303 l 258 250 l 553 250 l 553 311 l 388 374 l 388 376 l 553 438 l 553 500 l 258 500 l 258 447 l 442 447 l 442 444 l 303 393 z m 250 99 b 361 0 250 35 294 0 l 444 0 b 557 99 513 0 557 35 b 439 200 557 163 508 200 l 367 200 b 250 99 297 200 250 163 z m 308 99 b 365 143 308 126 331 143 l 442 143 b 499 99 476 143 497 126 b 446 56 499 74 478 56 l 360 56 b 308 99 329 56 308 74 z "},"ō":{"ha":806,"x_min":0,"x_max":0,"o":"m 553 972 l 257 972 l 257 883 b 404 772 257 803 311 772 b 553 883 499 772 553 803 z m 314 915 l 496 915 l 496 885 b 404 829 496 840 464 829 b 314 885 346 829 314 840 z m 257 549 l 308 549 l 308 669 l 379 669 l 379 569 l 432 569 l 432 669 l 501 669 l 501 549 l 553 549 l 553 726 l 257 726 z m 303 357 l 442 306 l 442 303 l 258 303 l 258 250 l 553 250 l 553 311 l 388 374 l 388 376 l 553 438 l 553 500 l 258 500 l 258 447 l 442 447 l 442 444 l 303 393 z m 250 99 b 361 0 250 35 294 0 l 444 0 b 557 99 513 0 557 35 b 439 200 557 163 508 200 l 367 200 b 250 99 297 200 250 163 z m 308 99 b 365 143 308 126 331 143 l 442 143 b 499 99 476 143 497 126 b 446 56 499 74 478 56 l 360 56 b 308 99 329 56 308 74 z "},"ø":{"ha":806,"x_min":0,"x_max":0,"o":"m 553 972 l 257 972 l 257 883 b 404 772 257 803 311 772 b 553 883 499 772 553 803 z m 314 915 l 496 915 l 496 885 b 404 829 496 840 464 829 b 314 885 346 829 314 840 z m 257 549 l 308 549 l 308 669 l 379 669 l 379 569 l 432 569 l 432 669 l 501 669 l 501 549 l 553 549 l 553 726 l 257 726 z m 303 357 l 442 306 l 442 303 l 258 303 l 258 250 l 553 250 l 553 311 l 388 374 l 388 376 l 553 438 l 553 500 l 258 500 l 258 447 l 442 447 l 442 444 l 303 393 z m 250 99 b 361 0 250 35 294 0 l 444 0 b 557 99 513 0 557 35 b 439 200 557 163 508 200 l 367 200 b 250 99 297 200 250 163 z m 308 99 b 365 143 308 126 331 143 l 442 143 b 499 99 476 143 497 126 b 446 56 499 74 478 56 l 360 56 b 308 99 329 56 308 74 z "},"õ":{"ha":806,"x_min":0,"x_max":0,"o":"m 553 972 l 257 972 l 257 883 b 404 772 257 803 311 772 b 553 883 499 772 553 803 z m 314 915 l 496 915 l 496 885 b 404 829 496 840 464 829 b 314 885 346 829 314 840 z m 257 549 l 308 549 l 308 669 l 379 669 l 379 569 l 432 569 l 432 669 l 501 669 l 501 549 l 553 549 l 553 726 l 257 726 z m 303 357 l 442 306 l 442 303 l 258 303 l 258 250 l 553 250 l 553 311 l 388 374 l 388 376 l 553 438 l 553 500 l 258 500 l 258 447 l 442 447 l 442 444 l 303 393 z m 250 99 b 361 0 250 35 294 0 l 444 0 b 557 99 513 0 557 35 b 439 200 557 163 508 200 l 367 200 b 250 99 297 200 250 163 z m 308 99 b 365 143 308 126 331 143 l 442 143 b 499 99 476 143 497 126 b 446 56 499 74 478 56 l 360 56 b 308 99 329 56 308 74 z "},"œ":{"ha":806,"x_min":0,"x_max":0,"o":"m 553 972 l 257 972 l 257 883 b 404 772 257 803 311 772 b 553 883 499 772 553 803 z m 314 915 l 496 915 l 496 885 b 404 829 496 840 464 829 b 314 885 346 829 314 840 z m 257 549 l 308 549 l 308 669 l 379 669 l 379 569 l 432 569 l 432 669 l 501 669 l 501 549 l 553 549 l 553 726 l 257 726 z m 303 357 l 442 306 l 442 303 l 258 303 l 258 250 l 553 250 l 553 311 l 388 374 l 388 376 l 553 438 l 553 500 l 258 500 l 258 447 l 442 447 l 442 444 l 303 393 z m 250 99 b 361 0 250 35 294 0 l 444 0 b 557 99 513 0 557 35 b 439 200 557 163 508 200 l 367 200 b 250 99 297 200 250 163 z m 308 99 b 365 143 308 126 331 143 l 442 143 b 499 99 476 143 497 126 b 446 56 499 74 478 56 l 360 56 b 308 99 329 56 308 74 z "},"š":{"ha":806,"x_min":0,"x_max":0,"o":"m 553 972 l 257 972 l 257 883 b 404 772 257 803 311 772 b 553 883 499 772 553 803 z m 314 915 l 496 915 l 496 885 b 404 829 496 840 464 829 b 314 885 346 829 314 840 z m 257 549 l 308 549 l 308 669 l 379 669 l 379 569 l 432 569 l 432 669 l 501 669 l 501 549 l 553 549 l 553 726 l 257 726 z m 303 357 l 442 306 l 442 303 l 258 303 l 258 250 l 553 250 l 553 311 l 388 374 l 388 376 l 553 438 l 553 500 l 258 500 l 258 447 l 442 447 l 442 444 l 303 393 z m 250 99 b 361 0 250 35 294 0 l 444 0 b 557 99 513 0 557 35 b 439 200 557 163 508 200 l 367 200 b 250 99 297 200 250 163 z m 308 99 b 365 143 308 126 331 143 l 442 143 b 499 99 476 143 497 126 b 446 56 499 74 478 56 l 360 56 b 308 99 329 56 308 74 z "},"ß":{"ha":806,"x_min":0,"x_max":0,"o":"m 553 972 l 257 972 l 257 883 b 404 772 257 803 311 772 b 553 883 499 772 553 803 z m 314 915 l 496 915 l 496 885 b 404 829 496 840 464 829 b 314 885 346 829 314 840 z m 257 549 l 308 549 l 308 669 l 379 669 l 379 569 l 432 569 l 432 669 l 501 669 l 501 549 l 553 549 l 553 726 l 257 726 z m 303 357 l 442 306 l 442 303 l 258 303 l 258 250 l 553 250 l 553 311 l 388 374 l 388 376 l 553 438 l 553 500 l 258 500 l 258 447 l 442 447 l 442 444 l 303 393 z m 250 99 b 361 0 250 35 294 0 l 444 0 b 557 99 513 0 557 35 b 439 200 557 163 508 200 l 367 200 b 250 99 297 200 250 163 z m 308 99 b 365 143 308 126 331 143 l 442 143 b 499 99 476 143 497 126 b 446 56 499 74 478 56 l 360 56 b 308 99 329 56 308 74 z "},"ú":{"ha":806,"x_min":0,"x_max":0,"o":"m 553 972 l 257 972 l 257 883 b 404 772 257 803 311 772 b 553 883 499 772 553 803 z m 314 915 l 496 915 l 496 885 b 404 829 496 840 464 829 b 314 885 346 829 314 840 z m 257 549 l 308 549 l 308 669 l 379 669 l 379 569 l 432 569 l 432 669 l 501 669 l 501 549 l 553 549 l 553 726 l 257 726 z m 303 357 l 442 306 l 442 303 l 258 303 l 258 250 l 553 250 l 553 311 l 388 374 l 388 376 l 553 438 l 553 500 l 258 500 l 258 447 l 442 447 l 442 444 l 303 393 z m 250 99 b 361 0 250 35 294 0 l 444 0 b 557 99 513 0 557 35 b 439 200 557 163 508 200 l 367 200 b 250 99 297 200 250 163 z m 308 99 b 365 143 308 126 331 143 l 442 143 b 499 99 476 143 497 126 b 446 56 499 74 478 56 l 360 56 b 308 99 329 56 308 74 z "},"û":{"ha":806,"x_min":0,"x_max":0,"o":"m 553 972 l 257 972 l 257 883 b 404 772 257 803 311 772 b 553 883 499 772 553 803 z m 314 915 l 496 915 l 496 885 b 404 829 496 840 464 829 b 314 885 346 829 314 840 z m 257 549 l 308 549 l 308 669 l 379 669 l 379 569 l 432 569 l 432 669 l 501 669 l 501 549 l 553 549 l 553 726 l 257 726 z m 303 357 l 442 306 l 442 303 l 258 303 l 258 250 l 553 250 l 553 311 l 388 374 l 388 376 l 553 438 l 553 500 l 258 500 l 258 447 l 442 447 l 442 444 l 303 393 z m 250 99 b 361 0 250 35 294 0 l 444 0 b 557 99 513 0 557 35 b 439 200 557 163 508 200 l 367 200 b 250 99 297 200 250 163 z m 308 99 b 365 143 308 126 331 143 l 442 143 b 499 99 476 143 497 126 b 446 56 499 74 478 56 l 360 56 b 308 99 329 56 308 74 z "},"ü":{"ha":806,"x_min":0,"x_max":0,"o":"m 553 972 l 257 972 l 257 883 b 404 772 257 803 311 772 b 553 883 499 772 553 803 z m 314 915 l 496 915 l 496 885 b 404 829 496 840 464 829 b 314 885 346 829 314 840 z m 257 549 l 308 549 l 308 669 l 379 669 l 379 569 l 432 569 l 432 669 l 501 669 l 501 549 l 553 549 l 553 726 l 257 726 z m 303 357 l 442 306 l 442 303 l 258 303 l 258 250 l 553 250 l 553 311 l 388 374 l 388 376 l 553 438 l 553 500 l 258 500 l 258 447 l 442 447 l 442 444 l 303 393 z m 250 99 b 361 0 250 35 294 0 l 444 0 b 557 99 513 0 557 35 b 439 200 557 163 508 200 l 367 200 b 250 99 297 200 250 163 z m 308 99 b 365 143 308 126 331 143 l 442 143 b 499 99 476 143 497 126 b 446 56 499 74 478 56 l 360 56 b 308 99 329 56 308 74 z "},"ù":{"ha":806,"x_min":0,"x_max":0,"o":"m 553 972 l 257 972 l 257 883 b 404 772 257 803 311 772 b 553 883 499 772 553 803 z m 314 915 l 496 915 l 496 885 b 404 829 496 840 464 829 b 314 885 346 829 314 840 z m 257 549 l 308 549 l 308 669 l 379 669 l 379 569 l 432 569 l 432 669 l 501 669 l 501 549 l 553 549 l 553 726 l 257 726 z m 303 357 l 442 306 l 442 303 l 258 303 l 258 250 l 553 250 l 553 311 l 388 374 l 388 376 l 553 438 l 553 500 l 258 500 l 258 447 l 442 447 l 442 444 l 303 393 z m 250 99 b 361 0 250 35 294 0 l 444 0 b 557 99 513 0 557 35 b 439 200 557 163 508 200 l 367 200 b 250 99 297 200 250 163 z m 308 99 b 365 143 308 126 331 143 l 442 143 b 499 99 476 143 497 126 b 446 56 499 74 478 56 l 360 56 b 308 99 329 56 308 74 z "},"ű":{"ha":806,"x_min":0,"x_max":0,"o":"m 553 972 l 257 972 l 257 883 b 404 772 257 803 311 772 b 553 883 499 772 553 803 z m 314 915 l 496 915 l 496 885 b 404 829 496 840 464 829 b 314 885 346 829 314 840 z m 257 549 l 308 549 l 308 669 l 379 669 l 379 569 l 432 569 l 432 669 l 501 669 l 501 549 l 553 549 l 553 726 l 257 726 z m 303 357 l 442 306 l 442 303 l 258 303 l 258 250 l 553 250 l 553 311 l 388 374 l 388 376 l 553 438 l 553 500 l 258 500 l 258 447 l 442 447 l 442 444 l 303 393 z m 250 99 b 361 0 250 35 294 0 l 444 0 b 557 99 513 0 557 35 b 439 200 557 163 508 200 l 367 200 b 250 99 297 200 250 163 z m 308 99 b 365 143 308 126 331 143 l 442 143 b 499 99 476 143 497 126 b 446 56 499 74 478 56 l 360 56 b 308 99 329 56 308 74 z "},"ņ":{"ha":806,"x_min":0,"x_max":0,"o":"m 553 972 l 257 972 l 257 883 b 404 772 257 803 311 772 b 553 883 499 772 553 803 z m 314 915 l 496 915 l 496 885 b 404 829 496 840 464 829 b 314 885 346 829 314 840 z m 257 549 l 308 549 l 308 669 l 379 669 l 379 569 l 432 569 l 432 669 l 501 669 l 501 549 l 553 549 l 553 726 l 257 726 z m 303 357 l 442 306 l 442 303 l 258 303 l 258 250 l 553 250 l 553 311 l 388 374 l 388 376 l 553 438 l 553 500 l 258 500 l 258 447 l 442 447 l 442 444 l 303 393 z m 250 99 b 361 0 250 35 294 0 l 444 0 b 557 99 513 0 557 35 b 439 200 557 163 508 200 l 367 200 b 250 99 297 200 250 163 z m 308 99 b 365 143 308 126 331 143 l 442 143 b 499 99 476 143 497 126 b 446 56 499 74 478 56 l 360 56 b 308 99 329 56 308 74 z "},"ý":{"ha":806,"x_min":0,"x_max":0,"o":"m 553 972 l 257 972 l 257 883 b 404 772 257 803 311 772 b 553 883 499 772 553 803 z m 314 915 l 496 915 l 496 885 b 404 829 496 840 464 829 b 314 885 346 829 314 840 z m 257 549 l 308 549 l 308 669 l 379 669 l 379 569 l 432 569 l 432 669 l 501 669 l 501 549 l 553 549 l 553 726 l 257 726 z m 303 357 l 442 306 l 442 303 l 258 303 l 258 250 l 553 250 l 553 311 l 388 374 l 388 376 l 553 438 l 553 500 l 258 500 l 258 447 l 442 447 l 442 444 l 303 393 z m 250 99 b 361 0 250 35 294 0 l 444 0 b 557 99 513 0 557 35 b 439 200 557 163 508 200 l 367 200 b 250 99 297 200 250 163 z m 308 99 b 365 143 308 126 331 143 l 442 143 b 499 99 476 143 497 126 b 446 56 499 74 478 56 l 360 56 b 308 99 329 56 308 74 z "},"ÿ":{"ha":806,"x_min":0,"x_max":0,"o":"m 553 972 l 257 972 l 257 883 b 404 772 257 803 311 772 b 553 883 499 772 553 803 z m 314 915 l 496 915 l 496 885 b 404 829 496 840 464 829 b 314 885 346 829 314 840 z m 257 549 l 308 549 l 308 669 l 379 669 l 379 569 l 432 569 l 432 669 l 501 669 l 501 549 l 553 549 l 553 726 l 257 726 z m 303 357 l 442 306 l 442 303 l 258 303 l 258 250 l 553 250 l 553 311 l 388 374 l 388 376 l 553 438 l 553 500 l 258 500 l 258 447 l 442 447 l 442 444 l 303 393 z m 250 99 b 361 0 250 35 294 0 l 444 0 b 557 99 513 0 557 35 b 439 200 557 163 508 200 l 367 200 b 250 99 297 200 250 163 z m 308 99 b 365 143 308 126 331 143 l 442 143 b 499 99 476 143 497 126 b 446 56 499 74 478 56 l 360 56 b 308 99 329 56 308 74 z "},"ž":{"ha":806,"x_min":0,"x_max":0,"o":"m 553 972 l 257 972 l 257 883 b 404 772 257 803 311 772 b 553 883 499 772 553 803 z m 314 915 l 496 915 l 496 885 b 404 829 496 840 464 829 b 314 885 346 829 314 840 z m 257 549 l 308 549 l 308 669 l 379 669 l 379 569 l 432 569 l 432 669 l 501 669 l 501 549 l 553 549 l 553 726 l 257 726 z m 303 357 l 442 306 l 442 303 l 258 303 l 258 250 l 553 250 l 553 311 l 388 374 l 388 376 l 553 438 l 553 500 l 258 500 l 258 447 l 442 447 l 442 444 l 303 393 z m 250 99 b 361 0 250 35 294 0 l 444 0 b 557 99 513 0 557 35 b 439 200 557 163 508 200 l 367 200 b 250 99 297 200 250 163 z m 308 99 b 365 143 308 126 331 143 l 442 143 b 499 99 476 143 497 126 b 446 56 499 74 478 56 l 360 56 b 308 99 329 56 308 74 z "},"ª":{"ha":806,"x_min":0,"x_max":0,"o":"m 553 972 l 257 972 l 257 883 b 404 772 257 803 311 772 b 553 883 499 772 553 803 z m 314 915 l 496 915 l 496 885 b 404 829 496 840 464 829 b 314 885 346 829 314 840 z m 308 549 l 308 669 l 379 669 l 379 569 l 432 569 l 432 669 l 501 669 l 501 549 l 553 549 l 553 726 l 257 726 l 257 549 z m 442 306 l 442 303 l 258 303 l 258 250 l 553 250 l 553 311 l 388 374 l 388 376 l 553 438 l 553 500 l 258 500 l 258 447 l 442 447 l 442 444 l 303 393 l 303 357 z m 250 99 b 361 0 250 35 294 0 l 444 0 b 557 99 513 0 557 35 b 439 200 557 163 508 200 l 367 200 b 250 99 297 200 250 163 z m 308 99 b 365 143 308 126 331 143 l 442 143 b 499 99 476 143 497 126 b 446 56 499 74 478 56 l 360 56 b 308 99 329 56 308 74 z "},"º":{"ha":806,"x_min":0,"x_max":0,"o":"m 553 972 l 257 972 l 257 883 b 404 772 257 803 311 772 b 553 883 499 772 553 803 z m 314 915 l 496 915 l 496 885 b 404 829 496 840 464 829 b 314 885 346 829 314 840 z m 308 549 l 308 669 l 379 669 l 379 569 l 432 569 l 432 669 l 501 669 l 501 549 l 553 549 l 553 726 l 257 726 l 257 549 z m 442 306 l 442 303 l 258 303 l 258 250 l 553 250 l 553 311 l 388 374 l 388 376 l 553 438 l 553 500 l 258 500 l 258 447 l 442 447 l 442 444 l 303 393 l 303 357 z m 250 99 b 361 0 250 35 294 0 l 444 0 b 557 99 513 0 557 35 b 439 200 557 163 508 200 l 367 200 b 250 99 297 200 250 163 z m 308 99 b 365 143 308 126 331 143 l 442 143 b 499 99 476 143 497 126 b 446 56 499 74 478 56 l 360 56 b 308 99 329 56 308 74 z "},"Ω":{"ha":806,"x_min":0,"x_max":0,"o":"m 553 972 l 257 972 l 257 883 b 404 772 257 803 311 772 b 553 883 499 772 553 803 z m 314 915 l 496 915 l 496 885 b 404 829 496 840 464 829 b 314 885 346 829 314 840 z m 257 549 l 308 549 l 308 669 l 379 669 l 379 569 l 432 569 l 432 669 l 501 669 l 501 549 l 553 549 l 553 726 l 257 726 z m 303 357 l 442 306 l 442 303 l 258 303 l 258 250 l 553 250 l 553 311 l 388 374 l 388 376 l 553 438 l 553 500 l 258 500 l 258 447 l 442 447 l 442 444 l 303 393 z m 250 99 b 361 0 250 35 294 0 l 444 0 b 557 99 513 0 557 35 b 439 200 557 163 508 200 l 367 200 b 250 99 297 200 250 163 z m 308 99 b 365 143 308 126 331 143 l 442 143 b 499 99 476 143 497 126 b 446 56 499 74 478 56 l 360 56 b 308 99 329 56 308 74 z "},";":{"ha":806,"x_min":0,"x_max":0,"o":"m 553 972 l 257 972 l 257 883 b 404 772 257 803 311 772 b 553 883 499 772 553 803 z m 314 915 l 496 915 l 496 885 b 404 829 496 840 464 829 b 314 885 346 829 314 840 z m 257 549 l 308 549 l 308 669 l 379 669 l 379 569 l 432 569 l 432 669 l 501 669 l 501 549 l 553 549 l 553 726 l 257 726 z m 303 357 l 442 306 l 442 303 l 258 303 l 258 250 l 553 250 l 553 311 l 388 374 l 388 376 l 553 438 l 553 500 l 258 500 l 258 447 l 442 447 l 442 444 l 303 393 z m 250 99 b 361 0 250 35 294 0 l 444 0 b 557 99 513 0 557 35 b 439 200 557 163 508 200 l 367 200 b 250 99 297 200 250 163 z m 308 99 b 365 143 308 126 331 143 l 442 143 b 499 99 476 143 497 126 b 446 56 499 74 478 56 l 360 56 b 308 99 329 56 308 74 z "},"…":{"ha":806,"x_min":0,"x_max":0,"o":"m 553 972 l 257 972 l 257 883 b 404 772 257 803 311 772 b 553 883 499 772 553 803 z m 314 915 l 496 915 l 496 885 b 404 829 496 840 464 829 b 314 885 346 829 314 840 z m 257 549 l 308 549 l 308 669 l 379 669 l 379 569 l 432 569 l 432 669 l 501 669 l 501 549 l 553 549 l 553 726 l 257 726 z m 303 357 l 442 306 l 442 303 l 258 303 l 258 250 l 553 250 l 553 311 l 388 374 l 388 376 l 553 438 l 553 500 l 258 500 l 258 447 l 442 447 l 442 444 l 303 393 z m 250 99 b 361 0 250 35 294 0 l 444 0 b 557 99 513 0 557 35 b 439 200 557 163 508 200 l 367 200 b 250 99 297 200 250 163 z m 308 99 b 365 143 308 126 331 143 l 442 143 b 499 99 476 143 497 126 b 446 56 499 74 478 56 l 360 56 b 308 99 329 56 308 74 z "},"¡":{"ha":806,"x_min":0,"x_max":0,"o":"m 553 972 l 257 972 l 257 883 b 404 772 257 803 311 772 b 553 883 499 772 553 803 z m 314 915 l 496 915 l 496 885 b 404 829 496 840 464 829 b 314 885 346 829 314 840 z m 257 549 l 308 549 l 308 669 l 379 669 l 379 569 l 432 569 l 432 669 l 501 669 l 501 549 l 553 549 l 553 726 l 257 726 z m 303 357 l 442 306 l 442 303 l 258 303 l 258 250 l 553 250 l 553 311 l 388 374 l 388 376 l 553 438 l 553 500 l 258 500 l 258 447 l 442 447 l 442 444 l 303 393 z m 250 99 b 361 0 250 35 294 0 l 444 0 b 557 99 513 0 557 35 b 439 200 557 163 508 200 l 367 200 b 250 99 297 200 250 163 z m 308 99 b 365 143 308 126 331 143 l 442 143 b 499 99 476 143 497 126 b 446 56 499 74 478 56 l 360 56 b 308 99 329 56 308 74 z "},"¿":{"ha":806,"x_min":0,"x_max":0,"o":"m 553 972 l 257 972 l 257 883 b 404 772 257 803 311 772 b 553 883 499 772 553 803 z m 314 915 l 496 915 l 496 885 b 404 829 496 840 464 829 b 314 885 346 829 314 840 z m 257 549 l 308 549 l 308 669 l 379 669 l 379 569 l 432 569 l 432 669 l 501 669 l 501 549 l 553 549 l 553 726 l 257 726 z m 303 357 l 442 306 l 442 303 l 258 303 l 258 250 l 553 250 l 553 311 l 388 374 l 388 376 l 553 438 l 553 500 l 258 500 l 258 447 l 442 447 l 442 444 l 303 393 z m 250 99 b 361 0 250 35 294 0 l 444 0 b 557 99 513 0 557 35 b 439 200 557 163 508 200 l 367 200 b 250 99 297 200 250 163 z m 308 99 b 365 143 308 126 331 143 l 442 143 b 499 99 476 143 497 126 b 446 56 499 74 478 56 l 360 56 b 308 99 329 56 308 74 z "},"·":{"ha":806,"x_min":0,"x_max":0,"o":"m 553 972 l 257 972 l 257 883 b 404 772 257 803 311 772 b 553 883 499 772 553 803 z m 314 915 l 496 915 l 496 885 b 404 829 496 840 464 829 b 314 885 346 829 314 840 z m 308 549 l 308 669 l 379 669 l 379 569 l 432 569 l 432 669 l 501 669 l 501 549 l 553 549 l 553 726 l 257 726 l 257 549 z m 442 306 l 442 303 l 258 303 l 258 250 l 553 250 l 553 311 l 388 374 l 388 376 l 553 438 l 553 500 l 258 500 l 258 447 l 442 447 l 442 444 l 303 393 l 303 357 z m 250 99 b 361 0 250 35 294 0 l 444 0 b 557 99 513 0 557 35 b 439 200 557 163 508 200 l 367 200 b 250 99 297 200 250 163 z m 308 99 b 365 143 308 126 331 143 l 442 143 b 499 99 476 143 497 126 b 446 56 499 74 478 56 l 360 56 b 308 99 329 56 308 74 z "},"•":{"ha":806,"x_min":0,"x_max":0,"o":"m 553 972 l 257 972 l 257 883 b 404 772 257 803 311 772 b 553 883 499 772 553 803 z m 314 915 l 496 915 l 496 885 b 404 829 496 840 464 829 b 314 885 346 829 314 840 z m 257 549 l 308 549 l 308 669 l 379 669 l 379 569 l 432 569 l 432 669 l 501 669 l 501 549 l 553 549 l 553 726 l 257 726 z m 303 357 l 442 306 l 442 303 l 258 303 l 258 250 l 553 250 l 553 311 l 388 374 l 388 376 l 553 438 l 553 500 l 258 500 l 258 447 l 442 447 l 442 444 l 303 393 z m 250 99 b 361 0 250 35 294 0 l 444 0 b 557 99 513 0 557 35 b 439 200 557 163 508 200 l 367 200 b 250 99 297 200 250 163 z m 308 99 b 365 143 308 126 331 143 l 442 143 b 499 99 476 143 497 126 b 446 56 499 74 478 56 l 360 56 b 308 99 329 56 308 74 z "},"*":{"ha":806,"x_min":0,"x_max":0,"o":"m 553 972 l 257 972 l 257 883 b 404 772 257 803 311 772 b 553 883 499 772 553 803 z m 314 915 l 496 915 l 496 885 b 404 829 496 840 464 829 b 314 885 346 829 314 840 z m 257 549 l 308 549 l 308 669 l 379 669 l 379 569 l 432 569 l 432 669 l 501 669 l 501 549 l 553 549 l 553 726 l 257 726 z m 303 357 l 442 306 l 442 303 l 258 303 l 258 250 l 553 250 l 553 311 l 388 374 l 388 376 l 553 438 l 553 500 l 258 500 l 258 447 l 442 447 l 442 444 l 303 393 z m 250 99 b 361 0 250 35 294 0 l 444 0 b 557 99 513 0 557 35 b 439 200 557 163 508 200 l 367 200 b 250 99 297 200 250 163 z m 308 99 b 365 143 308 126 331 143 l 442 143 b 499 99 476 143 497 126 b 446 56 499 74 478 56 l 360 56 b 308 99 329 56 308 74 z "},"«":{"ha":806,"x_min":0,"x_max":0,"o":"m 553 972 l 257 972 l 257 883 b 404 772 257 803 311 772 b 553 883 499 772 553 803 z m 314 915 l 496 915 l 496 885 b 404 829 496 840 464 829 b 314 885 346 829 314 840 z m 308 549 l 308 669 l 379 669 l 379 569 l 432 569 l 432 669 l 501 669 l 501 549 l 553 549 l 553 726 l 257 726 l 257 549 z m 442 306 l 442 303 l 258 303 l 258 250 l 553 250 l 553 311 l 388 374 l 388 376 l 553 438 l 553 500 l 258 500 l 258 447 l 442 447 l 442 444 l 303 393 l 303 357 z m 250 99 b 361 0 250 35 294 0 l 444 0 b 557 99 513 0 557 35 b 439 200 557 163 508 200 l 367 200 b 250 99 297 200 250 163 z m 308 99 b 365 143 308 126 331 143 l 442 143 b 499 99 476 143 497 126 b 446 56 499 74 478 56 l 360 56 b 308 99 329 56 308 74 z "},"»":{"ha":806,"x_min":0,"x_max":0,"o":"m 553 972 l 257 972 l 257 883 b 404 772 257 803 311 772 b 553 883 499 772 553 803 z m 314 915 l 496 915 l 496 885 b 404 829 496 840 464 829 b 314 885 346 829 314 840 z m 308 549 l 308 669 l 379 669 l 379 569 l 432 569 l 432 669 l 501 669 l 501 549 l 553 549 l 553 726 l 257 726 l 257 549 z m 442 306 l 442 303 l 258 303 l 258 250 l 553 250 l 553 311 l 388 374 l 388 376 l 553 438 l 553 500 l 258 500 l 258 447 l 442 447 l 442 444 l 303 393 l 303 357 z m 250 99 b 361 0 250 35 294 0 l 444 0 b 557 99 513 0 557 35 b 439 200 557 163 508 200 l 367 200 b 250 99 297 200 250 163 z m 308 99 b 365 143 308 126 331 143 l 442 143 b 499 99 476 143 497 126 b 446 56 499 74 478 56 l 360 56 b 308 99 329 56 308 74 z "},"‹":{"ha":806,"x_min":0,"x_max":0,"o":"m 553 972 l 257 972 l 257 883 b 404 772 257 803 311 772 b 553 883 499 772 553 803 z m 314 915 l 496 915 l 496 885 b 404 829 496 840 464 829 b 314 885 346 829 314 840 z m 308 549 l 308 669 l 379 669 l 379 569 l 432 569 l 432 669 l 501 669 l 501 549 l 553 549 l 553 726 l 257 726 l 257 549 z m 442 306 l 442 303 l 258 303 l 258 250 l 553 250 l 553 311 l 388 374 l 388 376 l 553 438 l 553 500 l 258 500 l 258 447 l 442 447 l 442 444 l 303 393 l 303 357 z m 250 99 b 361 0 250 35 294 0 l 444 0 b 557 99 513 0 557 35 b 439 200 557 163 508 200 l 367 200 b 250 99 297 200 250 163 z m 308 99 b 365 143 308 126 331 143 l 442 143 b 499 99 476 143 497 126 b 446 56 499 74 478 56 l 360 56 b 308 99 329 56 308 74 z "},"›":{"ha":806,"x_min":0,"x_max":0,"o":"m 553 972 l 257 972 l 257 883 b 404 772 257 803 311 772 b 553 883 499 772 553 803 z m 314 915 l 496 915 l 496 885 b 404 829 496 840 464 829 b 314 885 346 829 314 840 z m 308 549 l 308 669 l 379 669 l 379 569 l 432 569 l 432 669 l 501 669 l 501 549 l 553 549 l 553 726 l 257 726 l 257 549 z m 442 306 l 442 303 l 258 303 l 258 250 l 553 250 l 553 311 l 388 374 l 388 376 l 553 438 l 553 500 l 258 500 l 258 447 l 442 447 l 442 444 l 303 393 l 303 357 z m 250 99 b 361 0 250 35 294 0 l 444 0 b 557 99 513 0 557 35 b 439 200 557 163 508 200 l 367 200 b 250 99 297 200 250 163 z m 308 99 b 365 143 308 126 331 143 l 442 143 b 499 99 476 143 497 126 b 446 56 499 74 478 56 l 360 56 b 308 99 329 56 308 74 z "},"|":{"ha":806,"x_min":0,"x_max":0,"o":"m 553 972 l 257 972 l 257 883 b 404 772 257 803 311 772 b 553 883 499 772 553 803 z m 314 915 l 496 915 l 496 885 b 404 829 496 840 464 829 b 314 885 346 829 314 840 z m 257 549 l 308 549 l 308 669 l 379 669 l 379 569 l 432 569 l 432 669 l 501 669 l 501 549 l 553 549 l 553 726 l 257 726 z m 303 357 l 442 306 l 442 303 l 258 303 l 258 250 l 553 250 l 553 311 l 388 374 l 388 376 l 553 438 l 553 500 l 258 500 l 258 447 l 442 447 l 442 444 l 303 393 z m 250 99 b 361 0 250 35 294 0 l 444 0 b 557 99 513 0 557 35 b 439 200 557 163 508 200 l 367 200 b 250 99 297 200 250 163 z m 308 99 b 365 143 308 126 331 143 l 442 143 b 499 99 476 143 497 126 b 446 56 499 74 478 56 l 360 56 b 308 99 329 56 308 74 z "},"†":{"ha":806,"x_min":0,"x_max":0,"o":"m 553 972 l 257 972 l 257 883 b 404 772 257 803 311 772 b 553 883 499 772 553 803 z m 314 915 l 496 915 l 496 885 b 404 829 496 840 464 829 b 314 885 346 829 314 840 z m 257 549 l 308 549 l 308 669 l 379 669 l 379 569 l 432 569 l 432 669 l 501 669 l 501 549 l 553 549 l 553 726 l 257 726 z m 303 357 l 442 306 l 442 303 l 258 303 l 258 250 l 553 250 l 553 311 l 388 374 l 388 376 l 553 438 l 553 500 l 258 500 l 258 447 l 442 447 l 442 444 l 303 393 z m 250 99 b 361 0 250 35 294 0 l 444 0 b 557 99 513 0 557 35 b 439 200 557 163 508 200 l 367 200 b 250 99 297 200 250 163 z m 308 99 b 365 143 308 126 331 143 l 442 143 b 499 99 476 143 497 126 b 446 56 499 74 478 56 l 360 56 b 308 99 329 56 308 74 z "},"№":{"ha":806,"x_min":0,"x_max":0,"o":"m 553 972 l 257 972 l 257 883 b 404 772 257 803 311 772 b 553 883 499 772 553 803 z m 314 915 l 496 915 l 496 885 b 404 829 496 840 464 829 b 314 885 346 829 314 840 z m 257 549 l 308 549 l 308 669 l 379 669 l 379 569 l 432 569 l 432 669 l 501 669 l 501 549 l 553 549 l 553 726 l 257 726 z m 303 357 l 442 306 l 442 303 l 258 303 l 258 250 l 553 250 l 553 311 l 388 374 l 388 376 l 553 438 l 553 500 l 258 500 l 258 447 l 442 447 l 442 444 l 303 393 z m 250 99 b 361 0 250 35 294 0 l 444 0 b 557 99 513 0 557 35 b 439 200 557 163 508 200 l 367 200 b 250 99 297 200 250 163 z m 308 99 b 365 143 308 126 331 143 l 442 143 b 499 99 476 143 497 126 b 446 56 499 74 478 56 l 360 56 b 308 99 329 56 308 74 z "},"-":{"ha":806,"x_min":0,"x_max":0,"o":"m 551 972 l 257 972 l 257 883 b 404 772 257 803 310 772 b 551 883 499 772 551 803 z m 314 915 l 494 915 l 494 885 b 404 829 494 840 464 829 b 314 885 344 829 314 840 z m 257 549 l 307 549 l 307 669 l 379 669 l 379 569 l 431 569 l 431 669 l 501 669 l 501 549 l 551 549 l 551 726 l 257 726 z m 303 357 l 440 306 l 440 303 l 257 303 l 257 250 l 551 250 l 551 311 l 386 374 l 386 376 l 551 438 l 551 500 l 257 500 l 257 447 l 440 447 l 440 444 l 303 393 z m 250 99 b 361 0 250 35 293 0 l 444 0 b 556 99 511 0 556 35 b 439 200 556 163 508 200 l 367 200 b 250 99 297 200 250 163 z m 307 99 b 364 143 307 126 331 143 l 440 143 b 497 99 475 143 497 126 b 446 56 499 74 478 56 l 360 56 b 307 99 328 56 307 74 z "}}}
